<?xml version="1.0" encoding="utf-8"?>
<!-- Generator: Adobe Illustrator 25.2.0, SVG Export Plug-In . SVG Version: 6.00 Build 0)  -->
<svg version="1.1" id="Warstwa_1" xmlns="http://www.w3.org/2000/svg" xmlns:xlink="http://www.w3.org/1999/xlink" x="0px" y="0px"
	 viewBox="0 0 25 25" style="enable-background:new 0 0 25 25;" xml:space="preserve">
<style type="text/css">
	.st0{fill:#FFFFFF;}
</style>
<g id="Warstwa_2_1_">
	<g id="Warstwa_1-2">
		<path class="st0" d="M12.5,25C19.4,25,25,19.4,25,12.5S19.4,0,12.5,0S0,5.6,0,12.5S5.6,25,12.5,25z M8.6,8.6
			C7.6,7.7,7.5,6.1,8.4,5c0.9-1,2.5-1.1,3.5-0.2l0,0l6.5,5.8c1,0.9,1.1,2.5,0.2,3.5c-0.1,0.1-0.1,0.1-0.2,0.2l-6.5,5.8
			c-1,0.9-2.6,0.8-3.5-0.2c-0.9-1-0.8-2.6,0.2-3.5l0,0l4.4-3.9L8.6,8.6z"/>
	</g>
</g>
</svg>
