<svg xmlns="http://www.w3.org/2000/svg" viewBox="0 0 25.14 23.45"><defs><style>.cls-1{fill:#fff;}</style></defs><g id="Warstwa_2" data-name="Warstwa 2"><g id="Warstwa_1-2" data-name="Warstwa 1"><path class="cls-1" d="M21.19,6V0H3.94V6L0,8.81V23.45H25.14V8.81ZM8.94,16,1.47,21.28V10.62Zm3.63-.79L22.1,22H3ZM16.2,16l7.46-5.33V21.28Zm6.93-6.76-1.94,1.38V7.8ZM19.72,1.47V11.63L14.94,15l-2.37-1.69L10.2,15,5.42,11.63V1.47ZM3.94,10.57,2,9.19,3.94,7.8Z"/><rect class="cls-1" x="7.5" y="3.38" width="5.07" height="1.47"/><rect class="cls-1" x="7.5" y="6.76" width="10.14" height="1.47"/><rect class="cls-1" x="7.5" y="10.14" width="10.14" height="1.47"/></g></g></svg>