<?xml version="1.0" encoding="utf-8"?>
<!-- Generator: Adobe Illustrator 24.3.0, SVG Export Plug-In . SVG Version: 6.00 Build 0)  -->
<svg version="1.1" id="Warstwa_1" xmlns="http://www.w3.org/2000/svg" xmlns:xlink="http://www.w3.org/1999/xlink" x="0px" y="0px"
	 viewBox="0 0 197.58 49.39" style="enable-background:new 0 0 197.58 49.39;" xml:space="preserve">
<style type="text/css">
	.st0{clip-path:url(#SVGID_2_);fill:#FFFFFF;}
	.st1{clip-path:url(#SVGID_4_);fill:#FFFFFF;}
	.st2{clip-path:url(#SVGID_6_);fill:#FFFFFF;}
	.st3{fill:#FFFFFF;}
	.st4{clip-path:url(#SVGID_8_);fill:#FFFFFF;}
	.st5{clip-path:url(#SVGID_10_);fill:#FFFFFF;}
	.st6{clip-path:url(#SVGID_12_);fill:#FFFFFF;}
	.st7{clip-path:url(#SVGID_14_);fill:#FFFFFF;}
	.st8{clip-path:url(#SVGID_16_);fill:#FFFFFF;}
	.st9{clip-path:url(#SVGID_18_);fill:#FFFFFF;}
	.st10{clip-path:url(#SVGID_20_);fill:#FFFFFF;}
	.st11{clip-path:url(#SVGID_22_);fill:#FFFFFF;}
	.st12{clip-path:url(#SVGID_24_);fill:#FFFFFF;}
	.st13{clip-path:url(#SVGID_26_);fill:#FFFFFF;}
	.st14{clip-path:url(#SVGID_28_);fill:#FFFFFF;}
	.st15{clip-path:url(#SVGID_30_);fill:#FFFFFF;}
	.st16{clip-path:url(#SVGID_32_);fill:#FFFFFF;}
	.st17{clip-path:url(#SVGID_34_);fill:#FFFFFF;}
	.st18{clip-path:url(#SVGID_36_);fill:#FFFFFF;}
	.st19{clip-path:url(#SVGID_38_);fill:#FFFFFF;}
	.st20{clip-path:url(#SVGID_40_);fill:#FFFFFF;}
	.st21{clip-path:url(#SVGID_42_);fill:#FFFFFF;}
	.st22{clip-path:url(#SVGID_44_);fill:#FFFFFF;}
	.st23{clip-path:url(#SVGID_46_);fill:#FFFFFF;}
	.st24{clip-path:url(#SVGID_48_);fill:#FFFFFF;}
	.st25{clip-path:url(#SVGID_50_);fill:#FFFFFF;}
	.st26{clip-path:url(#SVGID_52_);fill:#FFFFFF;}
	.st27{clip-path:url(#SVGID_54_);fill:#FFFFFF;}
	.st28{clip-path:url(#SVGID_56_);fill:#FFFFFF;}
	.st29{clip-path:url(#SVGID_58_);fill:#FFFFFF;}
	.st30{clip-path:url(#SVGID_60_);fill:#FFFFFF;}
	.st31{clip-path:url(#SVGID_62_);fill:#FFFFFF;}
	.st32{clip-path:url(#SVGID_64_);fill:#FFFFFF;}
	.st33{clip-path:url(#SVGID_66_);fill:#FFFFFF;}
	.st34{clip-path:url(#SVGID_68_);fill:#FFFFFF;}
	.st35{clip-path:url(#SVGID_70_);fill:#FFFFFF;}
	.st36{clip-path:url(#SVGID_72_);fill:#FFFFFF;}
	.st37{clip-path:url(#SVGID_74_);fill:#FFFFFF;}
	.st38{clip-path:url(#SVGID_76_);fill:#FFFFFF;}
	.st39{clip-path:url(#SVGID_78_);fill:#FFFFFF;}
	.st40{clip-path:url(#SVGID_80_);fill:#FFFFFF;}
	.st41{clip-path:url(#SVGID_82_);fill:#FFFFFF;}
	.st42{clip-path:url(#SVGID_84_);fill:#FFFFFF;}
	.st43{clip-path:url(#SVGID_86_);fill:#FFFFFF;}
	.st44{clip-path:url(#SVGID_88_);fill:#FFFFFF;}
	.st45{clip-path:url(#SVGID_90_);fill:#FFFFFF;}
	.st46{clip-path:url(#SVGID_92_);fill:#FFFFFF;}
</style>
<g>
	<g>
		<g>
			<defs>
				<rect id="SVGID_1_" width="197.58" height="49.39"/>
			</defs>
			<clipPath id="SVGID_2_">
				<use xlink:href="#SVGID_1_"  style="overflow:visible;"/>
			</clipPath>
			<polygon class="st0" points="20.52,38.29 22.69,41.07 21.16,42.27 18.98,39.48 			"/>
		</g>
		<g>
			<defs>
				<rect id="SVGID_3_" width="197.58" height="49.39"/>
			</defs>
			<clipPath id="SVGID_4_">
				<use xlink:href="#SVGID_3_"  style="overflow:visible;"/>
			</clipPath>
			<path class="st1" d="M7.59,25.43c-0.43-0.14-1.01-0.09-1.43,0.21c-0.05,0.04-0.16,0.03-0.2,0c-0.01-0.01-0.88-0.71-0.88-0.71
				l4.71-3.69l0.48,1.03c0.02,0.05,0.01,0.15-0.04,0.2c-0.31,0.29-0.54,0.67-0.54,1.32c0,0.68,0.44,1.13,0.59,1.35
				c-0.29,0.22-1.25,0.98-1.53,1.2C8.37,25.79,8.07,25.54,7.59,25.43"/>
		</g>
		<g>
			<defs>
				<rect id="SVGID_5_" width="197.58" height="49.39"/>
			</defs>
			<clipPath id="SVGID_6_">
				<use xlink:href="#SVGID_5_"  style="overflow:visible;"/>
			</clipPath>
			<path class="st2" d="M21.42,43.79c0.27,0.31,0.73,0.36,1.01,0.14l1.54-1.2c0.27-0.21,0.37-0.66,0.11-0.99l-0.22-0.29
				c-0.27-0.34-0.72-0.35-0.99-0.12l-1.54,1.2c-0.28,0.22-0.35,0.69-0.13,0.97L21.42,43.79z"/>
		</g>
	</g>
	<path class="st3" d="M16.9,33.67l2.52,3.2l-1.52,1.19l-2.22-2.82L16.9,33.67z M11.29,26.47l4.01,5.13l-1.23,1.58l-4.31-5.51
		L11.29,26.47z"/>
	<g>
		<g>
			<defs>
				<rect id="SVGID_7_" width="197.58" height="49.39"/>
			</defs>
			<clipPath id="SVGID_8_">
				<use xlink:href="#SVGID_7_"  style="overflow:visible;"/>
			</clipPath>
			<path class="st4" d="M19.78,37.05l-1.82,1.41c-0.42,0.33,0.22,1.18,0.65,0.84l1.82-1.41C20.86,37.57,20.19,36.73,19.78,37.05"/>
		</g>
		<g>
			<defs>
				<rect id="SVGID_9_" width="197.58" height="49.39"/>
			</defs>
			<clipPath id="SVGID_10_">
				<use xlink:href="#SVGID_9_"  style="overflow:visible;"/>
			</clipPath>
			<path class="st5" d="M10.58,25.28l-1.82,1.41c-0.42,0.33,0.22,1.18,0.65,0.84l1.82-1.41C11.66,25.79,11,24.95,10.58,25.28"/>
		</g>
		<g>
			<defs>
				<rect id="SVGID_11_" width="197.58" height="49.39"/>
			</defs>
			<clipPath id="SVGID_12_">
				<use xlink:href="#SVGID_11_"  style="overflow:visible;"/>
			</clipPath>
			<path class="st6" d="M4.76,24.98L2.2,23c-0.04-0.03-0.03-0.18,0.12-0.16c0.02,0,1.6,0.15,1.6,0.15l-0.01-1.14
				c-0.01-0.07,0.1-0.17,0.18-0.15c0.01,0,1.09,0.3,1.09,0.3l-0.53-2.42c-0.02-0.1,0.1-0.19,0.19-0.16l2.21,1.11l-0.01-1.13
				c-0.01-0.07,0.1-0.18,0.19-0.16c0.01,0,1.08,0.3,1.08,0.3l0.24-1.6c0.01-0.13,0.13-0.13,0.15-0.1c0.01,0.01,1.33,2.96,1.33,2.96
				L4.76,24.98z"/>
		</g>
		<g>
			<defs>
				<rect id="SVGID_13_" width="197.58" height="49.39"/>
			</defs>
			<clipPath id="SVGID_14_">
				<use xlink:href="#SVGID_13_"  style="overflow:visible;"/>
			</clipPath>
			<polygon class="st7" points="10.52,38.2 8.35,40.99 9.88,42.19 12.06,39.4 			"/>
		</g>
		<g>
			<defs>
				<rect id="SVGID_15_" width="197.58" height="49.39"/>
			</defs>
			<clipPath id="SVGID_16_">
				<use xlink:href="#SVGID_15_"  style="overflow:visible;"/>
			</clipPath>
			<path class="st8" d="M23.39,25.43c0.43-0.14,1.01-0.09,1.43,0.21c0.05,0.04,0.16,0.03,0.2,0c0.01-0.01,0.84-0.68,0.84-0.68
				l-4.7-3.71l-0.45,1.02c-0.02,0.05-0.01,0.15,0.04,0.2c0.31,0.29,0.54,0.67,0.54,1.32c0,0.68-0.44,1.13-0.59,1.35
				c0.29,0.22,1.25,0.98,1.53,1.2C22.61,25.79,22.91,25.54,23.39,25.43"/>
		</g>
		<g>
			<defs>
				<rect id="SVGID_17_" width="197.58" height="49.39"/>
			</defs>
			<clipPath id="SVGID_18_">
				<use xlink:href="#SVGID_17_"  style="overflow:visible;"/>
			</clipPath>
			<path class="st9" d="M9.61,43.7c-0.27,0.31-0.73,0.36-1.01,0.14l-1.54-1.2c-0.27-0.21-0.37-0.66-0.11-0.99l0.22-0.29
				c0.27-0.34,0.72-0.35,0.99-0.12l1.53,1.2c0.28,0.22,0.35,0.69,0.14,0.97L9.61,43.7z"/>
		</g>
	</g>
	<polygon class="st3" points="19.68,26.47 11.56,36.87 13.09,38.06 21.22,27.66 	"/>
	<g>
		<g>
			<defs>
				<rect id="SVGID_19_" width="197.58" height="49.39"/>
			</defs>
			<clipPath id="SVGID_20_">
				<use xlink:href="#SVGID_19_"  style="overflow:visible;"/>
			</clipPath>
			<path class="st10" d="M11.24,37l1.82,1.41c0.42,0.33-0.22,1.18-0.65,0.84l-1.82-1.41C10.15,37.52,10.82,36.68,11.24,37"/>
		</g>
		<g>
			<defs>
				<rect id="SVGID_21_" width="197.58" height="49.39"/>
			</defs>
			<clipPath id="SVGID_22_">
				<use xlink:href="#SVGID_21_"  style="overflow:visible;"/>
			</clipPath>
			<path class="st11" d="M20.39,25.28l1.82,1.41c0.42,0.33-0.22,1.18-0.65,0.84l-1.82-1.41C19.31,25.79,19.97,24.95,20.39,25.28"/>
		</g>
		<g>
			<defs>
				<rect id="SVGID_23_" width="197.58" height="49.39"/>
			</defs>
			<clipPath id="SVGID_24_">
				<use xlink:href="#SVGID_23_"  style="overflow:visible;"/>
			</clipPath>
			<path class="st12" d="M26.56,25.03l2.6-2.02c0.04-0.03,0.03-0.19-0.12-0.16c-0.02,0-1.6,0.15-1.6,0.15l0.01-1.14
				c0.01-0.07-0.1-0.17-0.18-0.15c-0.01,0-1.1,0.3-1.1,0.3l0.53-2.43c0.02-0.1-0.1-0.19-0.19-0.16l-2.22,1.11l0.01-1.13
				c0.01-0.07-0.1-0.18-0.19-0.16c-0.01,0-1.08,0.3-1.08,0.3l-0.24-1.6c-0.01-0.13-0.13-0.13-0.15-0.1
				c-0.01,0.01-1.35,3.05-1.35,3.05L26.56,25.03z"/>
		</g>
		<g>
			<defs>
				<rect id="SVGID_25_" width="197.58" height="49.39"/>
			</defs>
			<clipPath id="SVGID_26_">
				<use xlink:href="#SVGID_25_"  style="overflow:visible;"/>
			</clipPath>
			<path class="st13" d="M15.29,48.75C6.84,48.75,0,41.99,0,33.63V15.68h0.41h29.77h0.41v17.95C30.58,41.99,23.74,48.75,15.29,48.75
				 M15.29,47.94c8.02,0,14.51-6.41,14.51-14.32V16.46H0.78v17.16C0.78,41.53,7.27,47.94,15.29,47.94"/>
		</g>
		<g>
			<defs>
				<rect id="SVGID_27_" width="197.58" height="49.39"/>
			</defs>
			<clipPath id="SVGID_28_">
				<use xlink:href="#SVGID_27_"  style="overflow:visible;"/>
			</clipPath>
			<path class="st14" d="M7.06,14.12c0,0-4.28-11.56-4.29-11.57C2.74,2.27,2.89,2.31,3.05,2.37l0.17,0.08
				c0.52,0.26,1.04,0.44,1.58,0.58c0.58,0.13,1.04,0.2,1.39,0.75c0.17,0.33,0.16,0.58,0.06,0.97C6.23,4.86,6.34,4.78,6.39,4.65
				c0.42-0.66,0.73-0.93,1.63-0.99C8.78,3.62,9.4,3.88,9.74,4.67c0.23,0.66-0.01,1.27-0.61,1.78C9.02,6.6,9,6.67,9.03,6.85
				c0.01,0.13,0.33,0.29,0.46,0.29C9.59,7.15,8.67,8.33,7.78,7.5C7.62,7.11,7.61,6.93,7.67,6.45C7.7,6.12,7.09,5.96,6.95,6.63
				c-0.2,1.14,0.36,2.12,1.08,2.62c0.64,0.33,1.5,0.29,2.01-0.12c0.27-0.24,0.4-0.33,0.45-0.88c-0.27-0.15-0.46-0.29-0.54-0.61
				c-0.16-0.62,0.1-1.16,0.72-1.32c0.62-0.16,1.2,0.31,1.2,0.95c0,0.3-0.18,0.62-0.37,0.82c0.27,0.79,0.8,0.77,1.36,0.79
				c0.76,0.04,1.92-0.46,1.94-2.32c-0.02-0.33-0.29-1.52-0.77-1.54c-0.31,0-0.39,0.25-0.27,0.48c0.1,0.16,0.18,0.21,0.18,0.59
				c-0.18,0.87-1.49,0.8-1.5,0.76c0.74-1.1-1.31-1.31-1.23-2.63c0.05-0.94,0.63-1.28,1.12-1.43c0.53-0.13,0.99-0.08,1.44,0.16
				c0.14,0.07,0.21,0.14,0.38,0.31c0.02,0.02,0.1,0.05,0.05-0.04c-0.01-0.03-0.04-0.09-0.1-0.21C13.92,2.6,14,2.06,14.28,1.67
				c0.33-0.44,0.8-0.9,1.03-1.41c0.06-0.14,0.2-0.52,0.29-0.63c0.03-0.03,0.07-0.05,0.1-0.05c0.04,0.01,0.08,0.03,0.12,0.07
				c0.08,0.11,0.22,0.48,0.29,0.64c0.23,0.5,0.69,0.95,1.01,1.39c0.27,0.39,0.35,0.94,0.16,1.35c-0.03,0.09-0.1,0.16-0.11,0.2
				c-0.03,0.05,0.03,0.05,0.05,0.03c0.24-0.2,0.22-0.18,0.41-0.29c0.45-0.24,0.91-0.29,1.44-0.16c0.49,0.16,1.07,0.5,1.12,1.43
				c0.07,1.31-1.97,1.52-1.23,2.63c-0.01,0.03-1.32,0.12-1.5-0.76c-0.01-0.37,0.08-0.43,0.18-0.59c0.12-0.23,0.04-0.48-0.27-0.48
				c-0.48,0.03-0.75,1.2-0.77,1.54c0.03,1.86,1.18,2.36,1.94,2.32c0.57-0.02,1.09,0,1.36-0.79c-0.18-0.2-0.36-0.52-0.36-0.82
				c0-0.64,0.58-1.12,1.2-0.95c0.62,0.16,0.89,0.7,0.72,1.32c-0.08,0.32-0.27,0.46-0.54,0.61c0.05,0.54,0.17,0.65,0.45,0.88
				c0.51,0.41,1.37,0.46,2.01,0.12c0.72-0.5,1.28-1.48,1.08-2.62c-0.14-0.67-0.75-0.51-0.72-0.18c0.07,0.48,0.05,0.67-0.11,1.05
				c-0.9,0.82-1.82-0.35-1.71-0.36c0.12-0.01,0.44-0.16,0.46-0.29c0.03-0.18,0.01-0.24-0.1-0.39c-0.59-0.51-0.84-1.12-0.61-1.78
				c0.33-0.8,0.95-1.05,1.71-1.01c0.9,0.05,1.21,0.33,1.63,0.99c0.03,0.05,0.14,0.32,0.2,0.18c-0.05-0.41-0.21-0.8,0.05-1.2
				c0.35-0.55,0.75-0.48,1.33-0.61c0.54-0.15,1.02-0.3,1.54-0.56l0.22-0.1c0.18-0.12,0.35-0.12,0.28,0.16
				c-0.01,0.01-4.29,11.57-4.29,11.57L7.06,14.12L7.06,14.12z"/>
		</g>
		<g>
			<defs>
				<rect id="SVGID_29_" width="197.58" height="49.39"/>
			</defs>
			<clipPath id="SVGID_30_">
				<use xlink:href="#SVGID_29_"  style="overflow:visible;"/>
			</clipPath>
			<path class="st15" d="M39.2,40.96c0.07,0.23,0.12,0.33,0.2,0.33c0.11,0,0.15-0.11,0.32-0.47c0.38-0.82,1.73-4.75,1.73-4.75h-0.11
				l1.95,4.7c0.14,0.35,0.19,0.46,0.29,0.46c0.12,0,0.17-0.11,0.27-0.44c0.46-1.4,1.44-4.38,1.88-5.56c0.19-0.53,0.3-0.91,0.52-1
				c0.11-0.04,0.24-0.05,0.33-0.05c0.09,0,0.13-0.03,0.13-0.09c0-0.06-0.06-0.07-0.17-0.07c-0.31,0-0.71,0.03-0.78,0.03
				c-0.09,0-0.48-0.03-0.97-0.03c-0.14,0-0.21,0.02-0.21,0.09c0,0.06,0.06,0.09,0.16,0.09c0.37,0,0.45,0.13,0.45,0.28
				c0,0.13-0.03,0.33-0.09,0.54c-0.33,1.1-1.08,3.57-1.25,4.2h-0.02l-1.85-4.3c-0.12-0.29-0.16-0.41-0.26-0.41
				c-0.07,0-0.12,0.07-0.22,0.32l-1.73,5.18h-0.03c0,0-0.99-3.74-1.14-4.33c-0.11-0.4-0.2-0.7-0.2-0.82c0-0.1,0.02-0.16,0.1-0.2
				c0.06-0.03,0.15-0.03,0.22-0.03c0.09,0,0.16-0.01,0.16-0.08c0-0.05-0.06-0.08-0.19-0.08c-0.52,0-0.91,0.03-0.99,0.03
				c-0.08,0-0.57-0.03-1.03-0.03c-0.12,0-0.2,0.02-0.2,0.08c0,0.07,0.05,0.08,0.14,0.08c0.08,0,0.26,0.02,0.35,0.08
				c0.12,0.09,0.22,0.3,0.33,0.63L39.2,40.96z"/>
		</g>
		<g>
			<defs>
				<rect id="SVGID_31_" width="197.58" height="49.39"/>
			</defs>
			<clipPath id="SVGID_32_">
				<use xlink:href="#SVGID_31_"  style="overflow:visible;"/>
			</clipPath>
			<path class="st16" d="M54.1,37.01c-0.05-1.35-0.05-1.6-0.03-1.88c0.02-0.31,0.09-0.46,0.33-0.51c0.11-0.02,0.16-0.03,0.25-0.03
				c0.07,0,0.12-0.02,0.12-0.08c0-0.06-0.06-0.08-0.19-0.08c-0.3,0-0.86,0.03-1.07,0.03c-0.21,0-0.78-0.03-1.24-0.03
				c-0.14,0-0.2,0.02-0.2,0.08c0,0.06,0.05,0.08,0.15,0.08c0.12,0,0.28,0.01,0.35,0.03c0.29,0.06,0.37,0.2,0.38,0.51
				c0.02,0.29,0.36,1.88,0.36,1.88v1.56c0,0-0.34,1.52-0.38,1.9c-0.03,0.26-0.08,0.46-0.26,0.49C52.59,40.99,52.49,41,52.35,41
				c-0.11,0-0.14,0.03-0.14,0.07c0,0.06,0.06,0.09,0.18,0.09c0.35,0,0.92-0.03,1.12-0.03c0.22,0,0.78,0.03,1.29,0.03
				c0.1,0,0.17-0.03,0.17-0.09c0-0.05-0.04-0.07-0.12-0.07c-0.12,0-0.31-0.02-0.44-0.03c-0.22-0.03-0.31-0.23-0.32-0.48
				c-0.03-0.38-0.03-1.08,0.01-1.9v-0.94h0.01l0.1,0.27c0.19,0.26,1.94,2.31,2.33,2.66c0.38,0.34,0.63,0.54,1.1,0.58
				c0.18,0.02,0.61-0.37,0.61-0.37h0.78c0,0,0.21,0.37,0.21,0.3c0-0.05-0.05-0.07-0.12-0.07c-0.11,0-0.29-0.03-0.55-0.14
				c-0.48-0.18-0.88-0.58-1.27-0.96c-0.35-0.33-2.09-2.2-2.41-2.63c0.31-0.32,1.65-1.65,1.92-1.92c0.38-0.37,0.69-0.56,0.96-0.67
				c0.17-0.06,0.39-0.1,0.52-0.1c0.09,0,0.14-0.02,0.14-0.08c0-0.06-0.06-0.08-0.15-0.08c-0.28,0-0.77,0.03-1.04,0.03
				c-0.24,0-0.73-0.03-0.92-0.03c-0.1,0-0.14,0.02-0.14,0.08c0,0.05,0.03,0.07,0.12,0.09c0.09,0.02,0.12,0.08,0.12,0.18
				c0,0.15-0.2,0.37-0.45,0.67c-0.26,0.31-1.56,1.63-1.86,2.19h0.01V37.01z"/>
		</g>
		<g>
			<defs>
				<rect id="SVGID_33_" width="197.58" height="49.39"/>
			</defs>
			<clipPath id="SVGID_34_">
				<use xlink:href="#SVGID_33_"  style="overflow:visible;"/>
			</clipPath>
			<path class="st17" d="M60.37,38.58c0.1,0.82,0.1,1.52,0.06,1.9c-0.03,0.26-0.08,0.46-0.26,0.49c-0.08,0.02-0.18,0.03-0.32,0.03
				c-0.11,0-0.14,0.03-0.14,0.07c0,0.06,0.06,0.09,0.18,0.09c0.35,0,0.92-0.03,1.09-0.03c0.14,0,0.79,0.03,1.31,0.03
				c0.12,0,0.18-0.03,0.18-0.09c0-0.05-0.03-0.07-0.11-0.07c-0.11,0-0.3-0.02-0.44-0.03c-0.27-0.03-0.32-0.23-0.35-0.49
				c-0.05-0.37-0.05-1.07-0.41-1.9v-0.12c0.36-0.05,0.39-0.07,0.44-0.07l0.78,0.02c0.06,0,0.12,0.01,0.16,0.06
				c0.12,0.14,0.52,0.74,0.88,1.23c0.5,0.69,0.84,1.1,1.22,1.31c0.23,0.12,0.46,0.17,0.95,0.55h0.84c0.11-0.38,0.17-0.4,0.17-0.47
				c0-0.05-0.03-0.07-0.11-0.07s-0.15-0.01-0.25-0.03c-0.14-0.03-0.5-0.09-1-0.61c-0.52-0.55-1.14-1.34-1.93-2.34
				c0.9-0.73,1.18-1.33,1.18-1.99c0-0.6-0.35-1.05-0.61-1.22c-0.48-0.33-1.07-0.38-1.64-0.38c-0.28,0-0.95,0.03-1.25,0.03
				c-0.18,0-0.75-0.03-1.22-0.03c-0.14,0-0.2,0.02-0.2,0.08c0,0.06,0.05,0.08,0.15,0.08c0.12,0,0.28,0.01,0.35,0.03
				c0.29,0.06,0.37,0.2,0.38,0.51c0.02,0.29,0.02,0.54-0.08,1.88V38.58z M61.15,35.01c0-0.07,0.02-0.11,0.08-0.12
				c0.09-0.03,0.25-0.03,0.47-0.03c0.52,0,1.36,0.37,1.36,1.63c0,0.73-0.26,1.14-0.52,1.33c-0.16,0.12-0.28,0.15-0.63,0.15
				c-0.22,0-0.49-0.03-0.67-0.09c-0.06-0.03-0.08-0.06-0.08-0.16L61.15,35.01z"/>
		</g>
		<g>
			<defs>
				<rect id="SVGID_35_" width="197.58" height="49.39"/>
			</defs>
			<clipPath id="SVGID_36_">
				<use xlink:href="#SVGID_35_"  style="overflow:visible;"/>
			</clipPath>
			<path class="st18" d="M70.56,38.43c0.05,0,0.08,0.02,0.1,0.07l0.77,2.04c0.05,0.12-0.02,0.21-0.09,0.22
				c-0.1,0.01-0.13,0.03-0.13,0.09c0,0.07,0.12,0.07,0.29,0.07c0.77,0.02,1.47,0.02,1.82,0.02c0.35,0,0.44-0.02,0.44-0.1
				c0-0.07-0.04-0.08-0.13-0.08c-0.12,0-0.26-0.01-0.41-0.04c-0.2-0.04-0.48-0.18-0.85-1.05c-0.62-1.47-2.16-5.4-2.39-5.94
				c-0.1-0.22-0.15-0.31-0.24-0.31c-0.1,0-0.15,0.1-0.27,0.38l-2.43,6.06c-0.19,0.48-0.38,0.81-0.82,0.87
				c-0.08,0.01-0.21,0.02-0.3,0.02c-0.08,0-0.12,0.02-0.12,0.08c0,0.07,0.06,0.1,0.18,0.1c0.5,0,1.03-0.03,1.14-0.03
				c0.3,0,0.72,0.03,1.02,0.03c0.1,0,0.16-0.02,0.16-0.1c0-0.06-0.03-0.08-0.15-0.08h-0.15c-0.3,0-0.38-0.13-0.38-0.3
				c0-0.12,0.05-0.35,0.15-0.59l0.52-1.38c0.02-0.06,0.04-0.08,0.09-0.08h2.16V38.43z M68.4,38.42c-0.02-0.03-0.02-0.03-0.04-0.06
				l0.82-2.19c0.01-0.03,0.03-0.08,0.05-0.08c0.03,0,0.03,0.04,0.04,0.08l0.8,2.2c0.01,0.03,0,0.05-0.04,0.05H68.4z"/>
		</g>
		<g>
			<defs>
				<rect id="SVGID_37_" width="197.58" height="49.39"/>
			</defs>
			<clipPath id="SVGID_38_">
				<use xlink:href="#SVGID_37_"  style="overflow:visible;"/>
			</clipPath>
			<path class="st19" d="M75.84,36.85c0-1.19,0-1.44,0.02-1.72c0.02-0.31,0.09-0.46,0.33-0.51c0.11-0.02,0.16-0.03,0.25-0.03
				c0.07,0,0.12-0.02,0.12-0.08c0-0.06-0.06-0.08-0.18-0.08c-0.3,0-0.86,0.03-1.07,0.03c-0.21,0-0.78-0.03-1.24-0.03
				c-0.14,0-0.2,0.02-0.2,0.08c0,0.06,0.05,0.08,0.15,0.08c0.12,0,0.27,0.01,0.35,0.03c0.29,0.06,0.37,0.2,0.38,0.51
				c0.02,0.29,0.53,1.88,0.53,1.88v1.56c0,0-0.51,1.52-0.55,1.9c-0.03,0.26-0.08,0.46-0.26,0.49C74.37,40.99,74.27,41,74.13,41
				c-0.11,0-0.14,0.03-0.14,0.07c0,0.06,0.06,0.09,0.18,0.09c0.35,0,0.92-0.03,1.12-0.03c0.22,0,0.78,0.03,1.28,0.03
				c0.1,0,0.17-0.03,0.17-0.09c0-0.05-0.04-0.07-0.12-0.07c-0.12,0-0.31-0.02-0.44-0.03c-0.22-0.03-0.3-0.23-0.32-0.48
				c-0.03-0.38-0.03-1.08,0.18-1.9v-0.94h-0.17l0.1,0.27c0.18,0.26,1.94,2.31,2.33,2.66c0.38,0.34,0.63,0.54,1.1,0.58
				c0.18,0.02,0.61-0.37,0.61-0.37h0.88c0.18,0,0.22-0.03,0.22-0.09c0-0.06-0.06-0.08-0.12-0.08c-0.11,0-0.3-0.03-0.57-0.14
				c-0.5-0.19-0.92-0.61-1.33-1c-0.36-0.34-2.18-2.3-2.52-2.74c0.31-0.33,1.72-1.72,2.01-2.01c0.4-0.39,0.72-0.58,1-0.69
				c0.18-0.06,0.41-0.1,0.54-0.1c0.09,0,0.14-0.02,0.14-0.09s-0.06-0.09-0.16-0.09c-0.29,0-0.8,0.03-1.08,0.03
				c-0.25,0-0.76-0.03-0.96-0.03c-0.1,0-0.15,0.02-0.15,0.09c0,0.06,0.04,0.07,0.12,0.09c0.09,0.02,0.13,0.09,0.13,0.18
				c0,0.16-0.21,0.39-0.46,0.69c-0.27,0.32-1.62,1.7-1.94,2.04h0.28l0,0H75.84z"/>
		</g>
		<g>
			<defs>
				<rect id="SVGID_39_" width="197.58" height="49.39"/>
			</defs>
			<clipPath id="SVGID_40_">
				<use xlink:href="#SVGID_39_"  style="overflow:visible;"/>
			</clipPath>
			<path class="st20" d="M84.88,41.28c2.26,0,3.69-1.61,3.69-3.65c0-2.03-1.38-3.33-3.6-3.33c-2.67,0-3.67,1.97-3.67,3.49
				C81.29,39.37,82.32,41.28,84.88,41.28 M85.25,40.84c-1.71,0-2.73-1.47-2.73-3.32c0-2.22,1.16-2.78,2.19-2.78
				c1.46,0,2.6,1.24,2.6,3.23C87.31,40.54,85.87,40.84,85.25,40.84"/>
		</g>
		<g>
			<defs>
				<rect id="SVGID_41_" width="197.58" height="49.39"/>
			</defs>
			<clipPath id="SVGID_42_">
				<use xlink:href="#SVGID_41_"  style="overflow:visible;"/>
			</clipPath>
			<path class="st21" d="M92.27,40.96c0.07,0.23,0.12,0.33,0.2,0.33c0.11,0,0.15-0.11,0.32-0.47c0.38-0.82,1.73-4.75,1.73-4.75
				h-0.11l1.95,4.7c0.14,0.35,0.19,0.46,0.29,0.46c0.12,0,0.17-0.11,0.27-0.44c0.46-1.4,1.45-4.38,1.88-5.56
				c0.2-0.53,0.3-0.91,0.52-1c0.1-0.04,0.24-0.05,0.33-0.05c0.09,0,0.13-0.03,0.13-0.09c0-0.06-0.06-0.07-0.17-0.07
				c-0.31,0-0.71,0.03-0.78,0.03c-0.09,0-0.48-0.03-0.97-0.03c-0.14,0-0.21,0.02-0.21,0.09c0,0.06,0.06,0.09,0.16,0.09
				c0.37,0,0.45,0.13,0.45,0.28c0,0.13-0.03,0.33-0.09,0.54c-0.33,1.1-1.08,3.57-1.25,4.2h-0.02l-1.85-4.3
				c-0.12-0.29-0.16-0.41-0.26-0.41c-0.07,0-0.12,0.07-0.22,0.32l-1.73,5.18H92.8c0,0-0.99-3.74-1.14-4.33
				c-0.11-0.4-0.2-0.7-0.2-0.82c0-0.1,0.02-0.16,0.1-0.2c0.06-0.03,0.15-0.03,0.22-0.03c0.09,0,0.16-0.01,0.16-0.08
				c0-0.05-0.06-0.08-0.19-0.08c-0.52,0-0.9,0.03-0.99,0.03c-0.08,0-0.57-0.03-1.03-0.03c-0.12,0-0.2,0.02-0.2,0.08
				c0,0.07,0.05,0.08,0.14,0.08c0.08,0,0.26,0.02,0.35,0.08c0.12,0.09,0.22,0.3,0.33,0.63L92.27,40.96z"/>
		</g>
		<g>
			<defs>
				<rect id="SVGID_43_" width="197.58" height="49.39"/>
			</defs>
			<clipPath id="SVGID_44_">
				<use xlink:href="#SVGID_43_"  style="overflow:visible;"/>
			</clipPath>
			<path class="st22" d="M101.92,38.58c-0.42,0.86-0.42,1.56-0.46,1.94c-0.03,0.26-0.08,0.41-0.26,0.45
				c-0.08,0.02-0.19,0.03-0.32,0.03c-0.11,0-0.14,0.03-0.14,0.07c0,0.06,0.06,0.09,0.18,0.09c0.35,0,0.92-0.03,1.12-0.03
				c0.24,0,0.8,0.03,1.39,0.03c0.1,0,0.17-0.03,0.17-0.09c0-0.04-0.04-0.07-0.14-0.07c-0.14,0-0.33-0.02-0.46-0.03
				c-0.27-0.03-0.33-0.2-0.35-0.44c-0.03-0.38-0.03-1.08,0.06-1.95v-1.56c-0.09-1.35-0.09-1.6-0.07-1.88
				c0.02-0.31,0.09-0.46,0.33-0.51c0.11-0.02,0.18-0.03,0.27-0.03s0.14-0.02,0.14-0.09c0-0.05-0.07-0.07-0.19-0.07
				c-0.34,0-0.86,0.03-1.09,0.03c-0.26,0-0.82-0.03-1.16-0.03c-0.14,0-0.21,0.02-0.21,0.07c0,0.07,0.05,0.09,0.14,0.09
				c0.11,0,0.22,0.01,0.32,0.03c0.2,0.05,0.29,0.2,0.3,0.5c0.02,0.29,0.02,0.54,0.44,1.88V38.58L101.92,38.58z"/>
		</g>
		<g>
			<defs>
				<rect id="SVGID_45_" width="197.58" height="49.39"/>
			</defs>
			<clipPath id="SVGID_46_">
				<use xlink:href="#SVGID_45_"  style="overflow:visible;"/>
			</clipPath>
			<path class="st23" d="M106.2,38.42c0,0.98,0,1.69-0.04,2.06c-0.03,0.26-0.08,0.46-0.26,0.49c-0.08,0.02-0.19,0.03-0.32,0.03
				c-0.11,0-0.14,0.03-0.14,0.07c0,0.06,0.06,0.09,0.18,0.09c0.35,0,0.92-0.03,1.12-0.03c0.52,0,1.12,0.05,2.46,0.05
				c0.34,0,0.41,0,0.48-0.23c0.05-0.18,0.12-0.78,0.12-0.99c0-0.09,0-0.16-0.07-0.16c-0.06,0-0.08,0.03-0.1,0.14
				c-0.06,0.37-0.17,0.55-0.4,0.66c-0.23,0.11-0.61,0.11-0.84,0.11c-0.91,0-1.05-0.14-1.07-0.75c-0.01-0.26,0-1.07-0.7-1.38v-0.7
				c0.7-0.05,0.71-0.09,0.75-0.09c0.21,0,1.09,0.01,1.26,0.03c0.33,0.03,0.46,0.17,0.5,0.35c0.03,0.12,0.03,0.23,0.03,0.32
				c0,0.05,0.02,0.08,0.08,0.08c0.08,0,0.08-0.1,0.08-0.17c0-0.06,0.02-0.41,0.03-0.6c0.03-0.46,0.07-0.6,0.07-0.65
				c0-0.05-0.03-0.07-0.06-0.07c-0.04,0-0.08,0.04-0.14,0.12c-0.08,0.09-0.21,0.12-0.43,0.14c-0.2,0.02-1.23,0.02-1.42,0.02
				c-0.05,0,0.02-0.1,0.02-0.1v-2.26c0,0-0.06-0.09-0.02-0.09c0.18,0,1.12,0.02,1.26,0.03c0.44,0.05,0.54,0.16,0.6,0.32
				c0.05,0.11,0.05,0.26,0.05,0.32c0,0.08,0.02,0.12,0.08,0.12s0.08-0.05,0.09-0.1c0.02-0.11,0.03-0.5,0.04-0.58
				c0.03-0.41,0.07-0.52,0.07-0.58c0-0.05-0.01-0.08-0.05-0.08c-0.05,0-0.1,0.03-0.14,0.03c-0.07,0.02-0.21,0.03-0.38,0.05
				c-0.17,0.01-1.94,0.01-2.22,0.01c-0.25,0-0.81-0.03-1.28-0.03c-0.14,0-0.2,0.02-0.2,0.08c0,0.06,0.05,0.08,0.15,0.08
				c0.12,0,0.28,0.01,0.35,0.03c0.29,0.06,0.37,0.2,0.38,0.51c0.02,0.29,0.02,0.54,0.43,1.88v1.4H106.2z"/>
		</g>
		<g>
			<defs>
				<rect id="SVGID_47_" width="197.58" height="49.39"/>
			</defs>
			<clipPath id="SVGID_48_">
				<use xlink:href="#SVGID_47_"  style="overflow:visible;"/>
			</clipPath>
			<path class="st24" d="M37.61,26.66c0,1.29,0.34,1.95,0.8,2.36c0.65,0.58,1.52,0.61,1.99,0.61c0.5,0,1.04-0.07,1.59-0.43
				c0.73-0.48,1.13-1.34,1.13-2.22v-1.62c0-1.35,0-1.6,0.02-1.88c0.02-0.31,0.09-0.46,0.33-0.5c0.11-0.02,0.17-0.03,0.26-0.03
				c0.11,0,0.16-0.02,0.16-0.08s-0.06-0.08-0.19-0.08c-0.35,0-0.91,0.03-1.02,0.03c-0.01,0-0.58-0.03-1.04-0.03
				c-0.12,0-0.19,0.02-0.19,0.08s0.06,0.08,0.15,0.08c0.1,0,0.25,0.01,0.32,0.03c0.3,0.06,0.37,0.2,0.39,0.5
				c0.02,0.29,0.02,0.54,0.02,1.88v1.1c0,0,0.04,1.72-0.45,2.2c-0.35,0.35-0.84,0.48-1.22,0.48c-0.31,0-0.71-0.03-1.12-0.37
				c-0.44-0.35-1.13-2.19-1.13-2.19v-1.24c0,0,0.44-1.6,0.46-1.88c0.02-0.31,0.09-0.46,0.33-0.5c0.11-0.02,0.16-0.03,0.26-0.03
				c0.09,0,0.14-0.02,0.14-0.08s-0.06-0.08-0.2-0.08c-0.32,0-0.88,0.03-1.09,0.03c-0.27,0-0.83-0.03-1.3-0.03
				c-0.14,0-0.2,0.02-0.2,0.08s0.05,0.08,0.15,0.08c0.12,0,0.28,0.01,0.35,0.03c0.29,0.06,0.37,0.2,0.38,0.5
				c0.02,0.29,0.02,0.54-0.06,1.88v1.31H37.61z"/>
		</g>
		<g>
			<defs>
				<rect id="SVGID_49_" width="197.58" height="49.39"/>
			</defs>
			<clipPath id="SVGID_50_">
				<use xlink:href="#SVGID_49_"  style="overflow:visible;"/>
			</clipPath>
			<path class="st25" d="M46.79,24.3h0.03c0.15,0.16,1.1,1.24,2.02,2.17c0.89,0.89,1.98,2.02,2.51,2.54
				c0.09,0.09,0.2,0.19,0.29,0.19c0.08,0,0.11-0.08,0.11-0.27l0.09-5.44c0.01-0.48,0.08-0.67,0.32-0.73
				c0.1-0.03,0.17-0.03,0.25-0.03c0.1,0,0.16-0.03,0.16-0.08c0-0.07-0.08-0.08-0.2-0.08c-0.42,0-0.74,0.03-0.83,0.03
				c-0.18,0-0.59-0.03-1.03-0.03c-0.13,0-0.22,0.01-0.22,0.08c0,0.05,0.03,0.08,0.14,0.08c0.12,0,0.33,0,0.45,0.05
				c0.2,0.09,0.28,0.25,0.29,0.78l0.08,3.87h-0.04c-0.14-0.14-1.3-1.38-1.87-1.96c-1.24-1.25-2.54-2.66-2.64-2.77
				c-0.14-0.16-0.22-0.27-0.32-0.27c-0.08,0-0.11,0.12-0.11,0.29l-0.08,5.11c-0.01,0.75-0.04,1-0.26,1.07
				c-0.12,0.03-0.27,0.04-0.38,0.04c-0.08,0-0.14,0.02-0.14,0.07c0,0.08,0.08,0.09,0.19,0.09c0.44,0,0.84-0.03,0.92-0.03
				c0.16,0,0.5,0.03,1.05,0.03c0.12,0,0.2-0.02,0.2-0.09c0-0.05-0.05-0.07-0.14-0.07c-0.14,0-0.3-0.01-0.44-0.06
				c-0.17-0.06-0.28-0.28-0.3-0.96L46.79,24.3z"/>
		</g>
		<g>
			<defs>
				<rect id="SVGID_51_" width="197.58" height="49.39"/>
			</defs>
			<clipPath id="SVGID_52_">
				<use xlink:href="#SVGID_51_"  style="overflow:visible;"/>
			</clipPath>
			<path class="st26" d="M55.45,26.66c0,1.11,0,1.82-0.04,2.19c-0.03,0.26-0.08,0.41-0.26,0.44c-0.08,0.02-0.19,0.03-0.32,0.03
				c-0.11,0-0.14,0.03-0.14,0.07c0,0.06,0.06,0.09,0.18,0.09c0.35,0,0.92-0.03,1.12-0.03c0.24,0,0.8,0.03,1.39,0.03
				c0.1,0,0.17-0.03,0.17-0.09c0-0.04-0.04-0.07-0.14-0.07c-0.14,0-0.33-0.02-0.46-0.03c-0.27-0.03-0.33-0.2-0.35-0.44
				c-0.03-0.38-0.03-1.09-0.15-1.95v-1.56c0.11-1.35,0.11-1.6,0.13-1.88c0.02-0.31,0.09-0.46,0.33-0.51
				c0.11-0.02,0.18-0.03,0.27-0.03s0.14-0.02,0.14-0.09c0-0.05-0.07-0.07-0.19-0.07c-0.34,0-0.86,0.03-1.08,0.03
				c-0.26,0-0.82-0.03-1.16-0.03c-0.14,0-0.21,0.02-0.21,0.07c0,0.07,0.05,0.09,0.14,0.09c0.11,0,0.22,0.01,0.32,0.03
				c0.2,0.04,0.29,0.2,0.3,0.5c0.02,0.29,0.02,0.53,0.22,1.88v1.33H55.45z"/>
		</g>
		<g>
			<defs>
				<rect id="SVGID_53_" width="197.58" height="49.39"/>
			</defs>
			<clipPath id="SVGID_54_">
				<use xlink:href="#SVGID_53_"  style="overflow:visible;"/>
			</clipPath>
			<path class="st27" d="M61.23,29.28c0.07,0.23,0.12,0.33,0.2,0.33c0.11,0,0.15-0.11,0.32-0.47c0.38-0.82,1.73-4.83,1.73-4.83
				h-0.12l1.95,4.71c0.14,0.35,0.19,0.46,0.29,0.46c0.12,0,0.17-0.11,0.27-0.44c0.46-1.41,1.44-4.39,1.88-5.58
				c0.19-0.54,0.3-0.91,0.52-1c0.11-0.04,0.24-0.05,0.33-0.05c0.09,0,0.13-0.03,0.13-0.09c0-0.06-0.06-0.08-0.17-0.08
				c-0.31,0-0.71,0.03-0.78,0.03c-0.09,0-0.48-0.03-0.98-0.03c-0.14,0-0.22,0.02-0.22,0.09c0,0.06,0.06,0.09,0.16,0.09
				c0.37,0,0.45,0.13,0.45,0.28c0,0.13-0.03,0.33-0.09,0.55c-0.33,1.1-1.08,3.58-1.25,4.21h-0.02l-1.85-4.23
				c-0.12-0.29-0.16-0.41-0.26-0.41c-0.07,0-0.12,0.07-0.22,0.32l-1.73,5.11h-0.03c0,0-0.99-3.66-1.14-4.25
				c-0.11-0.4-0.2-0.7-0.2-0.82c0-0.1,0.02-0.16,0.1-0.2c0.06-0.03,0.15-0.03,0.22-0.03c0.09,0,0.16-0.01,0.16-0.08
				c0-0.05-0.06-0.08-0.19-0.08c-0.52,0-0.91,0.03-0.99,0.03c-0.08,0-0.57-0.03-1.03-0.03c-0.12,0-0.2,0.02-0.2,0.08
				c0,0.07,0.05,0.08,0.14,0.08c0.08,0,0.26,0.02,0.35,0.08c0.12,0.09,0.22,0.3,0.33,0.63L61.23,29.28z"/>
		</g>
		<g>
			<defs>
				<rect id="SVGID_55_" width="197.58" height="49.39"/>
			</defs>
			<clipPath id="SVGID_56_">
				<use xlink:href="#SVGID_55_"  style="overflow:visible;"/>
			</clipPath>
			<path class="st28" d="M70.47,26.66c0,1.07,0,1.77-0.05,2.15c-0.03,0.26-0.08,0.46-0.26,0.49c-0.08,0.02-0.19,0.03-0.32,0.03
				c-0.11,0-0.14,0.03-0.14,0.07c0,0.06,0.06,0.09,0.18,0.09c0.35,0,0.92-0.03,1.12-0.03c0.52,0,1.12,0.05,2.46,0.05
				c0.34,0,0.41,0,0.48-0.23c0.04-0.18,0.12-0.78,0.12-0.99c0-0.09,0-0.16-0.07-0.16c-0.06,0-0.08,0.03-0.1,0.14
				c-0.06,0.37-0.17,0.55-0.4,0.66s-0.61,0.11-0.84,0.11c-0.9,0-1.05-0.14-1.07-0.75c-0.01-0.26,0-1.07-0.24-1.38v-0.7
				c0.24-0.05,0.25-0.09,0.3-0.09c0.21,0,1.09,0.01,1.26,0.03c0.33,0.03,0.46,0.17,0.5,0.35c0.03,0.12,0.03,0.23,0.03,0.32
				c0,0.04,0.02,0.08,0.08,0.08c0.08,0,0.08-0.1,0.08-0.17c0-0.06,0.02-0.42,0.03-0.6c0.03-0.46,0.07-0.6,0.07-0.65
				c0-0.05-0.03-0.07-0.06-0.07c-0.05,0-0.08,0.04-0.14,0.12c-0.08,0.09-0.21,0.12-0.43,0.14c-0.2,0.02-1.23,0.02-1.42,0.02
				c-0.05,0,0.47-0.1,0.47-0.1v-2.25c0,0-0.51-0.09-0.47-0.09c0.18,0,1.12,0.02,1.26,0.03c0.44,0.05,0.54,0.16,0.6,0.32
				c0.04,0.11,0.05,0.26,0.05,0.32c0,0.08,0.02,0.12,0.08,0.12c0.06,0,0.08-0.05,0.09-0.1c0.02-0.11,0.03-0.5,0.04-0.58
				c0.03-0.41,0.07-0.52,0.07-0.58c0-0.05-0.01-0.08-0.05-0.08c-0.04,0-0.1,0.03-0.14,0.03c-0.07,0.02-0.21,0.03-0.38,0.05
				c-0.17,0.01-1.94,0.01-2.22,0.01c-0.25,0-0.81-0.03-1.28-0.03c-0.14,0-0.2,0.02-0.2,0.08s0.05,0.08,0.15,0.08
				c0.12,0,0.27,0.01,0.35,0.03c0.29,0.06,0.37,0.2,0.38,0.51c0.02,0.29,0.02,0.53,0.1,1.88v1.31H70.47z"/>
		</g>
		<g>
			<defs>
				<rect id="SVGID_57_" width="197.58" height="49.39"/>
			</defs>
			<clipPath id="SVGID_58_">
				<use xlink:href="#SVGID_57_"  style="overflow:visible;"/>
			</clipPath>
			<path class="st29" d="M76.76,26.66c0,1.07,0,1.77-0.05,2.15c-0.03,0.26-0.08,0.46-0.26,0.49c-0.08,0.02-0.18,0.03-0.32,0.03
				c-0.11,0-0.14,0.03-0.14,0.07c0,0.06,0.06,0.09,0.18,0.09c0.35,0,0.92-0.03,1.09-0.03c0.14,0,0.79,0.03,1.31,0.03
				c0.12,0,0.18-0.03,0.18-0.09c0-0.05-0.03-0.07-0.11-0.07c-0.11,0-0.3-0.02-0.44-0.03c-0.27-0.03-0.32-0.23-0.35-0.49
				c-0.05-0.37-0.05-1.07-0.23-1.9v-0.12c0.18-0.05,0.21-0.07,0.26-0.07l0.78,0.02c0.06,0,0.12,0.01,0.16,0.06
				c0.12,0.14,0.52,0.74,0.88,1.23c0.5,0.69,0.84,1.1,1.22,1.31c0.23,0.12,0.46,0.17,0.95-0.32h0.84c0.11,0.49,0.17,0.47,0.17,0.4
				c0-0.05-0.03-0.07-0.11-0.07s-0.15-0.01-0.25-0.03c-0.14-0.03-0.5-0.09-1-0.61c-0.52-0.55-1.14-1.35-1.93-2.34
				c0.9-0.73,1.18-1.33,1.18-1.99c0-0.6-0.35-1.05-0.61-1.22c-0.48-0.33-1.07-0.38-1.64-0.38c-0.28,0-0.95,0.03-1.25,0.03
				c-0.18,0-0.75-0.03-1.22-0.03c-0.14,0-0.2,0.02-0.2,0.08c0,0.06,0.05,0.08,0.15,0.08c0.12,0,0.28,0.01,0.35,0.03
				c0.29,0.06,0.37,0.2,0.38,0.51c0.02,0.29,0.02,0.54,0.1,1.88v1.3H76.76z M77.62,23.34c0-0.07,0.02-0.11,0.08-0.12
				c0.09-0.03,0.25-0.03,0.47-0.03c0.52,0,1.36,0.37,1.36,1.63c0,0.73-0.26,1.14-0.52,1.33c-0.16,0.12-0.28,0.15-0.63,0.15
				c-0.22,0-0.49-0.03-0.67-0.09c-0.06-0.03-0.08-0.06-0.08-0.16V23.34z"/>
		</g>
		<g>
			<defs>
				<rect id="SVGID_59_" width="197.58" height="49.39"/>
			</defs>
			<clipPath id="SVGID_60_">
				<use xlink:href="#SVGID_59_"  style="overflow:visible;"/>
			</clipPath>
			<path class="st30" d="M84.96,29.61c0.47,0,0.97-0.08,1.41-0.37c0.64-0.41,0.84-1.03,0.84-1.55c0-0.84-0.39-1.44-1.46-2.27
				l-0.25-0.18c-0.74-0.56-0.95-0.87-0.95-1.28c0-0.54,0.4-0.92,1.06-0.92c0.58,0,0.84,0.27,0.97,0.44
				c0.18,0.23,0.23,0.51,0.23,0.58c0,0.11,0.03,0.16,0.09,0.16c0.07,0,0.1-0.07,0.1-0.27c0-0.69,0.03-0.95,0.03-1.07
				c0-0.06-0.04-0.09-0.12-0.11c-0.23-0.06-0.61-0.15-1.18-0.15c-1.24,0-2.05,0.7-2.05,1.68c0,0.72,0.34,1.35,1.32,2.11l0.41,0.32
				c0.74,0.57,0.87,0.99,0.87,1.42c0,0.47-0.39,1.01-1.19,1.01c-0.55,0-1.07-0.24-1.27-0.9c-0.05-0.15-0.08-0.34-0.08-0.46
				c0-0.07-0.01-0.15-0.09-0.15c-0.07,0-0.1,0.1-0.11,0.23c-0.01,0.14-0.04,0.68-0.04,1.16c0,0.2,0.03,0.24,0.17,0.3
				C84.04,29.55,84.44,29.61,84.96,29.61"/>
		</g>
		<g>
			<defs>
				<rect id="SVGID_61_" width="197.58" height="49.39"/>
			</defs>
			<clipPath id="SVGID_62_">
				<use xlink:href="#SVGID_61_"  style="overflow:visible;"/>
			</clipPath>
			<path class="st31" d="M90.99,28.23c0-0.17,0,0.21-0.03,0.58c-0.02,0.26-0.1,0.46-0.27,0.49c-0.08,0.02-0.19,0.03-0.31,0.03
				c-0.1,0-0.14,0.03-0.14,0.07c0,0.07,0.07,0.09,0.2,0.09c0.33,0,0.89-0.03,1.12-0.03c0.24,0,0.8,0.03,1.36,0.03
				c0.12,0,0.19-0.03,0.19-0.09c0-0.04-0.05-0.07-0.14-0.07c-0.12,0-0.32-0.02-0.44-0.03c-0.27-0.03-0.35-0.23-0.37-0.49
				c-0.03-0.37-0.03-0.75-0.42-0.89v-0.73c0.39-0.29,0.39-0.57,0.53-0.89c0.16-0.38,1.41-2.48,1.7-2.83
				c0.2-0.24,0.29-0.35,0.48-0.44c0.14-0.07,0.3-0.11,0.39-0.11S95,22.9,95,22.83c0-0.05-0.06-0.07-0.16-0.07
				c-0.17,0-0.75,0.03-0.95,0.03c-0.26,0-0.54-0.03-0.84-0.03c-0.11,0-0.15,0.02-0.15,0.08c0,0.05,0.08,0.07,0.16,0.09
				c0.15,0.03,0.18,0.14,0.18,0.22c0,0.12-0.03,0.27-0.12,0.46c-0.12,0.28-1.24,2.24-1.33,2.45c-0.14-0.25-1.39-2.39-1.51-2.66
				c-0.06-0.12-0.11-0.23-0.11-0.3c0-0.07,0.04-0.14,0.12-0.16c0.14-0.03,0.2-0.04,0.2-0.1c0-0.05-0.04-0.08-0.14-0.08
				c-0.4,0-0.76,0.03-0.95,0.03c-0.29,0-0.96-0.03-1.12-0.03c-0.11,0-0.17,0.03-0.17,0.08c0,0.06,0.06,0.08,0.14,0.08
				c0.11,0,0.26,0.05,0.37,0.12c0.17,0.1,0.39,0.32,0.61,0.65c0.31,0.46,1.5,2.42,1.56,2.56c0.12,0.26,0.2,0.46,0.15,0.93v1.03
				H90.99z"/>
		</g>
		<g>
			<defs>
				<rect id="SVGID_63_" width="197.58" height="49.39"/>
			</defs>
			<clipPath id="SVGID_64_">
				<use xlink:href="#SVGID_63_"  style="overflow:visible;"/>
			</clipPath>
			<path class="st32" d="M97.81,26.66c0,1.07,0,1.77-0.05,2.15c-0.03,0.26-0.08,0.46-0.26,0.49c-0.08,0.02-0.19,0.03-0.32,0.03
				c-0.11,0-0.14,0.03-0.14,0.07c0,0.06,0.06,0.09,0.18,0.09c0.35,0,0.92-0.03,1.12-0.03c0.25,0,0.81,0.03,1.39,0.03
				c0.1,0,0.17-0.03,0.17-0.09c0-0.04-0.04-0.07-0.14-0.07c-0.13,0-0.33-0.02-0.46-0.03c-0.27-0.03-0.32-0.23-0.35-0.48
				c-0.04-0.38-0.04-1.09-0.17-1.9v-3.65l1.26,0.03c0.79,0.02,1.03,0.27,1.05,0.5l0.01,0.1c0.01,0.14,0.03,0.18,0.1,0.18
				c0.05,0,0.07-0.05,0.08-0.14c0-0.23,0.03-0.84,0.03-1.03c0-0.13-0.01-0.18-0.07-0.18c-0.07,0-0.29,0.09-0.86,0.05h-3.51
				c-0.29,0.04-0.63,0.02-0.89,0c-0.22-0.02-0.31-0.11-0.38-0.11c-0.05,0-0.08,0.05-0.11,0.17c-0.02,0.07-0.19,0.88-0.19,1.02
				c0,0.1,0.02,0.14,0.08,0.14c0.05,0,0.08-0.03,0.1-0.11c0.02-0.07,0.06-0.18,0.15-0.31c0.14-0.2,0.35-0.24,0.86-0.26L98,23.24
				v3.41H97.81z"/>
		</g>
		<g>
			<defs>
				<rect id="SVGID_65_" width="197.58" height="49.39"/>
			</defs>
			<clipPath id="SVGID_66_">
				<use xlink:href="#SVGID_65_"  style="overflow:visible;"/>
			</clipPath>
			<path class="st33" d="M103.61,26.66c0,1.07,0,1.77-0.04,2.15c-0.03,0.26-0.08,0.46-0.26,0.49c-0.08,0.02-0.19,0.03-0.32,0.03
				c-0.11,0-0.14,0.03-0.14,0.07c0,0.06,0.06,0.09,0.18,0.09c0.35,0,0.92-0.03,1.12-0.03c0.52,0,1.12,0.05,2.46,0.05
				c0.34,0,0.41,0,0.48-0.23c0.05-0.18,0.12-0.78,0.12-0.99c0-0.09,0-0.16-0.07-0.16c-0.06,0-0.08,0.03-0.1,0.14
				c-0.06,0.37-0.17,0.55-0.4,0.66s-0.61,0.11-0.84,0.11c-0.91,0-1.05-0.14-1.07-0.75c-0.01-0.26,0-1.07,0.32-1.38v-0.7
				c-0.32-0.05-0.31-0.09-0.26-0.09c0.21,0,1.09,0.01,1.26,0.03c0.33,0.03,0.46,0.17,0.5,0.35c0.03,0.12,0.03,0.23,0.03,0.32
				c0,0.04,0.02,0.08,0.08,0.08c0.08,0,0.08-0.1,0.08-0.17c0-0.06,0.02-0.42,0.03-0.6c0.03-0.46,0.07-0.6,0.07-0.65
				c0-0.05-0.03-0.07-0.06-0.07c-0.04,0-0.08,0.04-0.14,0.12c-0.08,0.09-0.21,0.12-0.43,0.14c-0.2,0.02-1.23,0.02-1.42,0.02
				c-0.05,0-0.54-0.1-0.54-0.1v-2.25c0,0,0.49-0.09,0.54-0.09c0.18,0,1.12,0.02,1.26,0.03c0.44,0.05,0.54,0.16,0.6,0.32
				c0.05,0.11,0.05,0.26,0.05,0.32c0,0.08,0.02,0.12,0.08,0.12s0.08-0.05,0.09-0.1c0.02-0.11,0.03-0.5,0.04-0.58
				c0.03-0.41,0.07-0.52,0.07-0.58c0-0.05-0.01-0.08-0.05-0.08s-0.1,0.03-0.14,0.03c-0.07,0.02-0.21,0.03-0.38,0.05
				c-0.17,0.01-1.94,0.01-2.22,0.01c-0.25,0-0.81-0.03-1.28-0.03c-0.14,0-0.2,0.02-0.2,0.08s0.05,0.08,0.15,0.08
				c0.12,0,0.28,0.01,0.35,0.03c0.29,0.06,0.37,0.2,0.38,0.51c0.02,0.29,0.02,0.53-0.12,1.88v1.31H103.61z"/>
		</g>
		<g>
			<defs>
				<rect id="SVGID_67_" width="197.58" height="49.39"/>
			</defs>
			<clipPath id="SVGID_68_">
				<use xlink:href="#SVGID_67_"  style="overflow:visible;"/>
			</clipPath>
			<path class="st34" d="M111.09,26.66c0,1.07,0,1.77-0.04,2.15c-0.03,0.26-0.08,0.46-0.26,0.49c-0.08,0.02-0.18,0.03-0.32,0.03
				c-0.11,0-0.14,0.03-0.14,0.07c0,0.06,0.06,0.09,0.18,0.09c0.35,0,0.92-0.03,1.12-0.03c0.25,0,0.81,0.03,1.39,0.03
				c0.1,0,0.17-0.03,0.17-0.09c0-0.04-0.05-0.07-0.14-0.07c-0.13,0-0.33-0.02-0.46-0.03c-0.27-0.03-0.32-0.23-0.35-0.48
				c-0.04-0.38-0.04-1.09-0.13-1.9v-3.65l1.22,0.03c0.8,0.02,1.03,0.27,1.05,0.5l0.01,0.1c0.01,0.14,0.03,0.18,0.1,0.18
				c0.05,0,0.07-0.05,0.08-0.14c0-0.23,0.03-0.84,0.03-1.03c0-0.13-0.01-0.18-0.07-0.18c-0.07,0-0.29,0.09-0.86,0.05h-3.52
				c-0.29,0.04-0.63,0.02-0.89,0c-0.22-0.02-0.31-0.11-0.38-0.11c-0.05,0-0.08,0.05-0.11,0.17c-0.02,0.07-0.19,0.88-0.19,1.02
				c0,0.1,0.02,0.14,0.08,0.14c0.05,0,0.08-0.03,0.1-0.11c0.02-0.07,0.06-0.18,0.15-0.31c0.14-0.2,0.35-0.24,0.86-0.26l1.58-0.03
				v3.41H111.09z"/>
		</g>
		<g>
			<defs>
				<rect id="SVGID_69_" width="197.58" height="49.39"/>
			</defs>
			<clipPath id="SVGID_70_">
				<use xlink:href="#SVGID_69_"  style="overflow:visible;"/>
			</clipPath>
			<path class="st35" d="M121.52,27.89c-0.09,1.74-0.09,2.63-0.76,3.32c-0.18,0.18-0.31,0.28-0.43,0.34
				c-0.15,0.08-0.2,0.12-0.2,0.16c0,0.04,0.03,0.07,0.07,0.07c0.05,0,0.12-0.02,0.18-0.05c0.19-0.09,0.33-0.16,0.45-0.23
				c0.86-0.52,1.33-1.14,1.51-1.68c0.18-0.5,0.21-1.07,0.21-1.58c0-0.45-0.03-0.87-0.25-1.26v-1.65c0.22-1.35,0.22-1.6,0.24-1.88
				c0.02-0.31,0.09-0.46,0.33-0.5c0.11-0.02,0.16-0.03,0.26-0.03c0.11,0,0.16-0.02,0.16-0.08s-0.06-0.08-0.18-0.08
				c-0.35,0-0.91,0.03-1.12,0.03c-0.23,0-0.79-0.03-1.26-0.03c-0.14,0-0.2,0.02-0.2,0.08s0.05,0.08,0.15,0.08
				c0.12,0,0.28,0.01,0.35,0.03c0.29,0.06,0.37,0.2,0.38,0.5c0.02,0.29,0.02,0.54,0.11,1.88V27.89L121.52,27.89z"/>
		</g>
		<g>
			<defs>
				<rect id="SVGID_71_" width="197.58" height="49.39"/>
			</defs>
			<clipPath id="SVGID_72_">
				<use xlink:href="#SVGID_71_"  style="overflow:visible;"/>
			</clipPath>
			<path class="st36" d="M127.8,27.46c0.04,0,0.07,0.02,0.1,0.07l0.77,2.04c0.05,0.12-0.02,0.21-0.09,0.22
				c-0.1,0.01-0.13,0.03-0.13,0.09c0,0.07,0.12,0.07,0.29,0.07c0.77,0.02,1.47,0.02,1.82,0.02c0.36,0,0.44-0.02,0.44-0.1
				c0-0.07-0.04-0.08-0.13-0.08c-0.12,0-0.26-0.01-0.41-0.04c-0.2-0.04-0.48-0.18-0.85-1.05c-0.62-1.47-2.16-5.4-2.39-5.94
				c-0.1-0.22-0.15-0.31-0.24-0.31c-0.1,0-0.15,0.1-0.27,0.38l-2.42,6.06c-0.19,0.48-0.38,0.81-0.82,0.87
				c-0.07,0.01-0.21,0.02-0.3,0.02c-0.07,0-0.12,0.02-0.12,0.08c0,0.07,0.06,0.1,0.18,0.1c0.5,0,1.03-0.03,1.14-0.03
				c0.3,0,0.72,0.03,1.02,0.03c0.1,0,0.16-0.02,0.16-0.1c0-0.06-0.03-0.08-0.15-0.08h-0.15c-0.3,0-0.38-0.13-0.38-0.3
				c0-0.12,0.04-0.35,0.15-0.59l0.52-1.38c0.02-0.06,0.04-0.08,0.09-0.08h2.15V27.46z M126.34,26.66c-0.02-0.03-0.02-0.03-0.04-0.06
				l0.82-2.19c0.01-0.03,0.03-0.08,0.05-0.08s0.03,0.04,0.05,0.08l0.8,2.2c0.01,0.03,0,0.05-0.05,0.05H126.34z"/>
		</g>
		<g>
			<defs>
				<rect id="SVGID_73_" width="197.58" height="49.39"/>
			</defs>
			<clipPath id="SVGID_74_">
				<use xlink:href="#SVGID_73_"  style="overflow:visible;"/>
			</clipPath>
			<path class="st37" d="M138.1,28.23c0-0.75,0-1.11,0.01-1.38c0.01-0.31,0.1-0.46,0.34-0.5c0.11-0.02,0.17-0.03,0.24-0.03
				c0.06,0,0.12-0.02,0.12-0.07c0-0.07-0.06-0.09-0.18-0.09c-0.29,0-0.77,0.03-1.04,0.03c-0.27,0-0.83-0.03-1.29-0.03
				c-0.12,0-0.19,0.02-0.19,0.09c0,0.05,0.05,0.07,0.14,0.07c0.12,0,0.28,0.01,0.35,0.03c0.29,0.06,0.37,0.2,0.38,0.5
				c0.01,0.27,0.01,0.61,0.24,1.05v0.84c-0.23,0.15-0.27,0.27-0.4,0.33c-0.21,0.1-0.52,0.1-0.75,0.1c-1.88,0-3.09-1.43-3.09-3.35
				c0-1.09,0.32-1.76,0.82-2.18c0.63-0.52,1.27-0.55,1.76-0.55c1.01,0,1.71,0.41,1.99,0.69c0.23,0.25,0.28,0.54,0.3,0.74
				c0.01,0.07,0.03,0.12,0.09,0.12c0.07,0,0.1-0.04,0.1-0.18c0-1.12,0.06-1.36,0.06-1.46c0-0.06-0.02-0.1-0.12-0.11
				c-0.2-0.01-0.52-0.06-0.7-0.1c-0.18-0.03-0.96-0.14-1.58-0.14c-0.75,0-1.54,0.06-2.39,0.58c-0.81,0.49-1.55,1.48-1.55,2.91
				c0,2.45,1.93,3.49,4.11,3.49c0.69,0,1.56-0.1,2.14-0.4c0.11-0.06,0.12-0.08,0.03-0.32v-0.67H138.1z"/>
		</g>
		<g>
			<defs>
				<rect id="SVGID_75_" width="197.58" height="49.39"/>
			</defs>
			<clipPath id="SVGID_76_">
				<use xlink:href="#SVGID_75_"  style="overflow:visible;"/>
			</clipPath>
			<path class="st38" d="M141.26,26.66c0,1.11,0,1.82-0.04,2.19c-0.03,0.26-0.08,0.41-0.26,0.44c-0.08,0.02-0.19,0.03-0.32,0.03
				c-0.11,0-0.14,0.03-0.14,0.07c0,0.06,0.06,0.09,0.18,0.09c0.35,0,0.92-0.03,1.12-0.03c0.24,0,0.8,0.03,1.39,0.03
				c0.1,0,0.17-0.03,0.17-0.09c0-0.04-0.04-0.07-0.14-0.07c-0.14,0-0.33-0.02-0.46-0.03c-0.27-0.03-0.33-0.2-0.35-0.44
				c-0.03-0.38-0.03-1.09-0.49-1.95v-1.56c0.45-1.35,0.45-1.6,0.47-1.88c0.02-0.31,0.09-0.46,0.33-0.51
				c0.11-0.02,0.18-0.03,0.27-0.03c0.09,0,0.14-0.02,0.14-0.09c0-0.05-0.07-0.07-0.19-0.07c-0.34,0-0.86,0.03-1.09,0.03
				c-0.26,0-0.82-0.03-1.16-0.03c-0.14,0-0.21,0.02-0.21,0.07c0,0.07,0.05,0.09,0.14,0.09c0.11,0,0.22,0.01,0.32,0.03
				c0.2,0.04,0.29,0.2,0.31,0.5c0.02,0.29,0.02,0.53-0.12,1.88v1.33H141.26z"/>
		</g>
		<g>
			<defs>
				<rect id="SVGID_77_" width="197.58" height="49.39"/>
			</defs>
			<clipPath id="SVGID_78_">
				<use xlink:href="#SVGID_77_"  style="overflow:visible;"/>
			</clipPath>
			<path class="st39" d="M145.95,26.66c0,1.07,0,1.77-0.04,2.15c-0.03,0.26-0.08,0.46-0.26,0.49c-0.08,0.02-0.19,0.03-0.32,0.03
				c-0.11,0-0.14,0.03-0.14,0.07c0,0.06,0.06,0.09,0.18,0.09c0.35,0,0.92-0.03,1.12-0.03c0.52,0,1.12,0.05,2.46,0.05
				c0.34,0,0.41,0,0.48-0.23c0.05-0.18,0.12-0.78,0.12-0.99c0-0.09,0-0.16-0.07-0.16c-0.06,0-0.08,0.03-0.1,0.14
				c-0.06,0.37-0.17,0.55-0.4,0.66s-0.61,0.11-0.84,0.11c-0.91,0-1.05-0.14-1.07-0.75c-0.01-0.26,0-1.07-0.46-1.38v-0.7
				c0.46-0.05,0.47-0.09,0.52-0.09c0.21,0,1.09,0.01,1.26,0.03c0.33,0.03,0.46,0.17,0.5,0.35c0.03,0.12,0.03,0.23,0.03,0.32
				c0,0.04,0.02,0.08,0.08,0.08c0.08,0,0.08-0.1,0.08-0.17c0-0.06,0.02-0.42,0.03-0.6c0.03-0.46,0.07-0.6,0.07-0.65
				c0-0.05-0.03-0.07-0.06-0.07c-0.04,0-0.08,0.04-0.14,0.12c-0.08,0.09-0.21,0.12-0.43,0.14c-0.2,0.02-1.23,0.02-1.42,0.02
				c-0.05,0-0.06-0.03-0.52-0.1v-2.25c0.46-0.06,0.48-0.09,0.52-0.09c0.18,0,1.12,0.02,1.26,0.03c0.44,0.05,0.54,0.16,0.6,0.32
				c0.05,0.11,0.05,0.26,0.05,0.32c0,0.08,0.02,0.12,0.08,0.12s0.08-0.05,0.09-0.1c0.02-0.11,0.03-0.5,0.04-0.58
				c0.03-0.41,0.07-0.52,0.07-0.58c0-0.05-0.01-0.08-0.05-0.08c-0.04,0-0.1,0.03-0.14,0.03c-0.07,0.02-0.21,0.03-0.38,0.05
				c-0.17,0.01-1.94,0.01-2.22,0.01c-0.25,0-0.81-0.03-1.28-0.03c-0.14,0-0.2,0.02-0.2,0.08s0.05,0.08,0.15,0.08
				c0.12,0,0.28,0.01,0.35,0.03c0.29,0.06,0.37,0.2,0.38,0.51c0.02,0.29,0.02,0.53-0.11,1.88v1.31H145.95z"/>
		</g>
		<g>
			<defs>
				<rect id="SVGID_79_" width="197.58" height="49.39"/>
			</defs>
			<clipPath id="SVGID_80_">
				<use xlink:href="#SVGID_79_"  style="overflow:visible;"/>
			</clipPath>
			<path class="st40" d="M153.35,25.09c0-1.1,0-1.35,0.02-1.63c0.02-0.31,0.09-0.46,0.33-0.51c0.11-0.02,0.25-0.03,0.35-0.03
				c0.11,0,0.16-0.02,0.16-0.08s-0.06-0.08-0.18-0.08c-0.35,0-0.99,0.03-1.21,0.03c-0.24,0-0.8-0.03-1.22-0.03
				c-0.14,0-0.2,0.02-0.2,0.08s0.05,0.08,0.15,0.08c0.12,0,0.22,0.01,0.29,0.03c0.29,0.06,0.37,0.2,0.38,0.51
				c0.02,0.29,0.02,0.54-0.12,1.88v1.56c0.14,0.82,0.14,1.52,0.1,1.9c-0.03,0.26-0.08,0.46-0.26,0.49
				c-0.08,0.02-0.18,0.03-0.32,0.03c-0.11,0-0.14,0.03-0.14,0.07c0,0.06,0.06,0.09,0.18,0.09c0.35,0,0.92-0.03,1.12-0.03
				c0.72,0,1.31,0.05,2.59,0.05c0.46,0,0.51-0.05,0.56-0.24c0.07-0.26,0.14-0.92,0.14-1.03c0-0.11-0.01-0.15-0.07-0.15
				s-0.09,0.05-0.1,0.14c-0.02,0.17-0.12,0.41-0.23,0.54c-0.22,0.24-0.57,0.25-1.04,0.25c-0.69,0-0.92-0.06-1.07-0.2
				c-0.18-0.16-0.18-0.78-0.67-1.91v-1.83H153.35z"/>
		</g>
		<g>
			<defs>
				<rect id="SVGID_81_" width="197.58" height="49.39"/>
			</defs>
			<clipPath id="SVGID_82_">
				<use xlink:href="#SVGID_81_"  style="overflow:visible;"/>
			</clipPath>
			<path class="st41" d="M159.41,25.09c0-1.1,0-1.35,0.02-1.63c0.02-0.31,0.09-0.46,0.33-0.51c0.11-0.02,0.25-0.03,0.35-0.03
				c0.11,0,0.16-0.02,0.16-0.08s-0.06-0.08-0.18-0.08c-0.35,0-0.99,0.03-1.21,0.03c-0.24,0-0.8-0.03-1.22-0.03
				c-0.14,0-0.2,0.02-0.2,0.08s0.05,0.08,0.15,0.08c0.12,0,0.22,0.01,0.29,0.03c0.29,0.06,0.37,0.2,0.38,0.51
				c0.02,0.29,0.02,0.54,0.1,1.88v1.56c-0.08,0.82-0.08,1.52-0.12,1.9c-0.03,0.26-0.08,0.46-0.26,0.49
				c-0.08,0.02-0.18,0.03-0.32,0.03c-0.11,0-0.14,0.03-0.14,0.07c0,0.06,0.06,0.09,0.18,0.09c0.35,0,0.92-0.03,1.12-0.03
				c0.72,0,1.31,0.05,2.59,0.05c0.46,0,0.51-0.05,0.56-0.24c0.07-0.26,0.14-0.92,0.14-1.03c0-0.11-0.01-0.15-0.07-0.15
				s-0.09,0.05-0.1,0.14c-0.02,0.17-0.12,0.41-0.23,0.54c-0.22,0.24-0.57,0.25-1.04,0.25c-0.69,0-0.92-0.06-1.07-0.2
				c-0.19-0.16-0.19-0.78-0.44-1.91v-1.83H159.41z"/>
		</g>
		<g>
			<defs>
				<rect id="SVGID_83_" width="197.58" height="49.39"/>
			</defs>
			<clipPath id="SVGID_84_">
				<use xlink:href="#SVGID_83_"  style="overflow:visible;"/>
			</clipPath>
			<path class="st42" d="M166.96,29.61c2.26,0,3.69-1.61,3.69-3.65c0-2.04-1.38-3.33-3.6-3.33c-2.67,0-3.67,1.97-3.67,3.49
				C163.38,27.7,164.41,29.61,166.96,29.61 M167.34,29.17c-1.71,0-2.73-1.47-2.73-3.32c0-2.22,1.16-2.79,2.19-2.79
				c1.46,0,2.6,1.24,2.6,3.23C169.4,28.87,167.96,29.17,167.34,29.17"/>
		</g>
		<g>
			<defs>
				<rect id="SVGID_85_" width="197.58" height="49.39"/>
			</defs>
			<clipPath id="SVGID_86_">
				<use xlink:href="#SVGID_85_"  style="overflow:visible;"/>
			</clipPath>
			<path class="st43" d="M177.14,20.81c-0.04-0.08-0.06-0.11-0.12-0.11c-0.03,0-0.09,0.02-0.18,0.08c-0.14,0.09-1.07,0.78-1.43,1.12
				c-0.05,0.04-0.08,0.08-0.08,0.12s0.03,0.05,0.05,0.05s0.08-0.03,0.15-0.07c0.33-0.18,1.03-0.46,1.52-0.52c0.18-0.02,0.26,0,0.3,0
				s0.1-0.03,0.04-0.14C177.3,21.11,177.22,20.94,177.14,20.81 M173.8,24.3h0.03c0.16,0.16,1.1,1.24,2.02,2.17
				c0.89,0.89,1.98,2.02,2.51,2.54c0.09,0.09,0.2,0.19,0.29,0.19c0.08,0,0.11-0.08,0.11-0.27l0.09-5.44
				c0.01-0.48,0.08-0.67,0.31-0.73c0.1-0.03,0.17-0.03,0.25-0.03c0.1,0,0.16-0.03,0.16-0.08c0-0.07-0.08-0.08-0.2-0.08
				c-0.42,0-0.74,0.03-0.83,0.03c-0.18,0-0.59-0.03-1.03-0.03c-0.13,0-0.22,0.01-0.22,0.08c0,0.05,0.03,0.08,0.14,0.08
				c0.12,0,0.33,0,0.45,0.05c0.2,0.09,0.28,0.25,0.29,0.78l0.08,3.87h-0.04c-0.14-0.14-1.3-1.38-1.87-1.96
				c-1.24-1.25-2.54-2.66-2.64-2.77c-0.14-0.16-0.22-0.27-0.31-0.27c-0.08,0-0.11,0.12-0.11,0.29l-0.08,5.11
				c-0.01,0.75-0.04,1-0.27,1.07c-0.12,0.03-0.27,0.04-0.38,0.04c-0.08,0-0.14,0.02-0.14,0.07c0,0.08,0.08,0.09,0.19,0.09
				c0.44,0,0.84-0.03,0.92-0.03c0.16,0,0.5,0.03,1.05,0.03c0.12,0,0.2-0.02,0.2-0.09c0-0.05-0.05-0.07-0.14-0.07
				c-0.14,0-0.3-0.01-0.44-0.06c-0.17-0.06-0.28-0.28-0.3-0.96L173.8,24.3z"/>
		</g>
		<g>
			<defs>
				<rect id="SVGID_87_" width="197.58" height="49.39"/>
			</defs>
			<clipPath id="SVGID_88_">
				<use xlink:href="#SVGID_87_"  style="overflow:visible;"/>
			</clipPath>
			<path class="st44" d="M183.17,29.61c0.47,0,0.97-0.08,1.41-0.37c0.64-0.41,0.84-1.03,0.84-1.55c0-0.84-0.39-1.44-1.46-2.27
				l-0.25-0.18c-0.74-0.56-0.95-0.87-0.95-1.28c0-0.54,0.4-0.92,1.06-0.92c0.58,0,0.84,0.27,0.97,0.44
				c0.18,0.23,0.23,0.51,0.23,0.58c0,0.11,0.03,0.16,0.09,0.16c0.07,0,0.1-0.07,0.1-0.27c0-0.69,0.03-0.95,0.03-1.07
				c0-0.06-0.04-0.09-0.12-0.11c-0.23-0.06-0.61-0.15-1.18-0.15c-1.24,0-2.05,0.7-2.05,1.68c0,0.72,0.34,1.35,1.32,2.11l0.41,0.32
				c0.74,0.57,0.87,0.99,0.87,1.42c0,0.47-0.39,1.01-1.19,1.01c-0.55,0-1.07-0.24-1.27-0.9c-0.04-0.15-0.08-0.34-0.08-0.46
				c0-0.07-0.01-0.15-0.09-0.15c-0.07,0-0.1,0.1-0.11,0.23c-0.01,0.14-0.05,0.68-0.05,1.16c0,0.2,0.03,0.24,0.17,0.3
				C182.26,29.55,182.66,29.61,183.17,29.61"/>
		</g>
		<g>
			<defs>
				<rect id="SVGID_89_" width="197.58" height="49.39"/>
			</defs>
			<clipPath id="SVGID_90_">
				<use xlink:href="#SVGID_89_"  style="overflow:visible;"/>
			</clipPath>
			<path class="st45" d="M188.95,25.34c0.34-1.35,0.34-1.6,0.36-1.88c0.02-0.31,0.09-0.46,0.33-0.51c0.11-0.02,0.16-0.03,0.25-0.03
				c0.07,0,0.12-0.02,0.12-0.08s-0.06-0.08-0.18-0.08c-0.31,0-0.86,0.03-1.07,0.03s-0.78-0.03-1.24-0.03c-0.14,0-0.2,0.02-0.2,0.08
				s0.05,0.08,0.15,0.08c0.12,0,0.28,0.01,0.35,0.03c0.29,0.06,0.37,0.2,0.38,0.51c0.02,0.29-0.03,1.88-0.03,1.88v1.56
				c0,0,0.05,1.52,0,1.9c-0.03,0.26-0.08,0.46-0.26,0.49c-0.08,0.02-0.19,0.03-0.32,0.03c-0.11,0-0.14,0.03-0.14,0.07
				c0,0.06,0.06,0.09,0.18,0.09c0.35,0,0.92-0.03,1.12-0.03c0.22,0,0.78,0.03,1.28,0.03c0.1,0,0.17-0.03,0.17-0.09
				c0-0.05-0.05-0.07-0.12-0.07c-0.12,0-0.31-0.02-0.44-0.03c-0.22-0.03-0.3-0.23-0.32-0.48c-0.03-0.38-0.03-1.09-0.38-1.9v-1.03
				h0.39l0.1,0.36c0.18,0.26,1.94,2.31,2.33,2.66c0.38,0.34,0.63,0.54,1.1,0.58c0.19,0.02,0.61-0.46,0.61-0.46h0.78
				c0,0,0.21,0.46,0.21,0.39c0-0.05-0.05-0.07-0.12-0.07c-0.11,0-0.29-0.03-0.55-0.14c-0.48-0.18-0.88-0.58-1.27-0.96
				c-0.35-0.33-2.09-2.2-2.41-2.63c0.3-0.32,1.65-1.65,1.92-1.92c0.38-0.37,0.69-0.56,0.96-0.67c0.17-0.06,0.39-0.1,0.52-0.1
				c0.09,0,0.14-0.02,0.14-0.08s-0.06-0.08-0.15-0.08c-0.28,0-0.77,0.03-1.04,0.03c-0.24,0-0.73-0.03-0.92-0.03
				c-0.1,0-0.14,0.02-0.14,0.08c0,0.05,0.03,0.07,0.12,0.09c0.09,0.02,0.12,0.08,0.12,0.18c0,0.15-0.2,0.37-0.44,0.67
				c-0.26,0.31-1.56,1.63-1.86,2.1h-0.38V25.34L188.95,25.34z"/>
		</g>
		<g>
			<defs>
				<rect id="SVGID_91_" width="197.58" height="49.39"/>
			</defs>
			<clipPath id="SVGID_92_">
				<use xlink:href="#SVGID_91_"  style="overflow:visible;"/>
			</clipPath>
			<path class="st46" d="M196.01,26.91c-0.29,0.86-0.29,1.56-0.33,1.94c-0.03,0.26-0.08,0.41-0.26,0.44
				c-0.08,0.02-0.19,0.03-0.32,0.03c-0.11,0-0.14,0.03-0.14,0.07c0,0.06,0.06,0.09,0.18,0.09c0.35,0,0.92-0.03,1.12-0.03
				c0.24,0,0.8,0.03,1.39,0.03c0.1,0,0.17-0.03,0.17-0.09c0-0.04-0.04-0.07-0.14-0.07c-0.14,0-0.33-0.02-0.46-0.03
				c-0.27-0.03-0.33-0.2-0.35-0.44c-0.03-0.38-0.03-1.09-0.06-1.95v-1.56c0.03-1.35,0.03-1.6,0.05-1.88
				c0.02-0.31,0.09-0.46,0.33-0.51c0.11-0.02,0.18-0.03,0.27-0.03s0.14-0.02,0.14-0.09c0-0.05-0.07-0.07-0.19-0.07
				c-0.34,0-0.86,0.03-1.09,0.03c-0.26,0-0.82-0.03-1.16-0.03c-0.14,0-0.21,0.02-0.21,0.07c0,0.07,0.05,0.09,0.14,0.09
				c0.11,0,0.22,0.01,0.32,0.03c0.2,0.04,0.29,0.2,0.3,0.5c0.02,0.29,0.02,0.53,0.31,1.88V26.91L196.01,26.91z"/>
		</g>
	</g>
</g>
</svg>
