<svg xmlns="http://www.w3.org/2000/svg" viewBox="0 0 138.22 45.23"><defs><style>.cls-1{fill:#fff;}</style></defs><g id="Warstwa_2" data-name="Warstwa 2"><g id="Warstwa_1-2" data-name="Warstwa 1"><g id="logo"><path class="cls-1" d="M0,21.25H16.92a5.79,5.79,0,0,1,5.64-4.44h0a5.8,5.8,0,0,1,5.64,4.44H45.13A22.61,22.61,0,0,0,0,21.25Z"/><path class="cls-1" d="M45.13,24H28.21a5.8,5.8,0,0,1-5.64,4.44h0A5.79,5.79,0,0,1,16.92,24H0a22.61,22.61,0,0,0,45.13,0Z"/><path class="cls-1" d="M118,9.69V4.23h1.59V9.56c0,.79.42,1.38,1.51,1.38s1.5-.59,1.5-1.38V4.23h1.6V9.69a3.11,3.11,0,0,1-6.2,0Z"/><path class="cls-1" d="M138.22,12.34h-1.59V7.08l-2.28,3.77h-.19l-2.28-3.76v5.25h-1.6V4.23h1.65l2.33,3.84,2.31-3.84h1.65Z"/><path class="cls-1" d="M87.35,4.23v8.11H86.14l-3.48-5v5h-1.6V4.23h1.22l3.47,4.95V4.23Z"/><path class="cls-1" d="M87.77,23.17a3.91,3.91,0,0,1-3.9,4.06H80.65V19.12h3.22A3.9,3.9,0,0,1,87.77,23.17Zm-1.53,0a2.34,2.34,0,0,0-2.37-2.52H82.24V25.7h1.63A2.34,2.34,0,0,0,86.24,23.17Z"/><path class="cls-1" d="M87,40.58v1.53H81.47V40.84l3.37-5.31H81.55V34h5.33v1.27l-3.37,5.31Z"/><path class="cls-1" d="M99.93,5.76H97.74v6.58h-1.6V5.76H94V4.23h6Z"/><path class="cls-1" d="M98.56,25.77H95.32l-.48,1.46H93.11L96,19.12h2l2.85,8.11H99Zm-.5-1.5L97,21l-1.12,3.31Z"/><path class="cls-1" d="M101.11,38.38a3.75,3.75,0,0,1-4,3.89A4.22,4.22,0,1,1,97,33.84a4.14,4.14,0,0,1,3.54,1.89l-1.37.79A2.48,2.48,0,0,0,97,35.39a2.66,2.66,0,1,0,.12,5.32,2.24,2.24,0,0,0,2.36-1.54H97V37.76h4.07Z"/><path class="cls-1" d="M109,9.53h-1.22v2.81h-1.6V4.23h3.25a2.69,2.69,0,0,1,2.69,2.69,2.62,2.62,0,0,1-1.56,2.36l1.8,3.06H110.6Zm-1.22-1.4h1.65a1.16,1.16,0,0,0,1.1-1.21,1.14,1.14,0,0,0-1.1-1.19h-1.65Z"/><path class="cls-1" d="M112.38,19.12v8.11h-1.21l-3.48-5v5h-1.6V19.12h1.22l3.48,4.94V19.12Zm-2.72-.73L111,16.8h-1.8l-.92,1.59Z"/><path class="cls-1" d="M106.14,39.46V34h1.59v5.33c0,.79.41,1.38,1.5,1.38s1.51-.59,1.51-1.38V34h1.6v5.46a3.11,3.11,0,0,1-6.2,0Z"/><path class="cls-1" d="M55,8.29a4.11,4.11,0,0,1,4.21-4.22A4,4,0,0,1,62.71,6l-1.38.8a2.33,2.33,0,0,0-2.11-1.16,2.52,2.52,0,0,0-2.63,2.67,2.51,2.51,0,0,0,2.63,2.65,2.33,2.33,0,0,0,2.11-1.15l1.38.8a4,4,0,0,1-3.49,1.91A4.11,4.11,0,0,1,55,8.29Z"/><path class="cls-1" d="M61.84,24.87a2.38,2.38,0,0,1-2.52,2.36H55.88V19.12h3.19a2.31,2.31,0,0,1,2.47,2.28A2,2,0,0,1,60.78,23,2.07,2.07,0,0,1,61.84,24.87Zm-4.36-4.26V22.4h1.59a.87.87,0,0,0,.87-.9.85.85,0,0,0-.87-.89Zm2.77,4.16a.91.91,0,0,0-.93-.95H57.48v1.91h1.84A.91.91,0,0,0,60.25,24.77Z"/><path class="cls-1" d="M62.83,42.11H61.24V36.85L59,40.62h-.19l-2.28-3.76v5.25h-1.6V34h1.65l2.32,3.84L61.18,34h1.65Z"/><path class="cls-1" d="M123.72,39.46V34h1.58v5.33c0,.79.42,1.38,1.51,1.38s1.5-.59,1.5-1.38V34h1.6v5.46a3.11,3.11,0,0,1-6.19,0Z"/><path class="cls-1" d="M75,10.81v1.53H70V4.23h5V5.76H71.6V7.49h3.07V9H71.6v1.82Z"/><path class="cls-1" d="M74.12,25.77H70.89l-.49,1.46H68.67l2.84-8.11h2l2.85,8.11H74.61Zm-.5-1.5L72.51,21,71.4,24.27Z"/><path class="cls-1" d="M68.3,38.06a4.21,4.21,0,1,1,4.2,4.21A4.17,4.17,0,0,1,68.3,38.06Zm6.82,0a2.62,2.62,0,1,0-2.62,2.65A2.57,2.57,0,0,0,75.12,38.06ZM73,33.18l1.29-1.59H72.5l-.92,1.59Z"/><path class="cls-1" d="M132.15,40.73l1.38-.78a1.29,1.29,0,0,0,1.3.76c.88,0,1.26-.46,1.26-1.12V34h1.59v5.59a2.6,2.6,0,0,1-2.85,2.68A2.79,2.79,0,0,1,132.15,40.73Z"/></g></g></g></svg>