<?xml version="1.0" encoding="utf-8"?>
<!-- Generator: Adobe Illustrator 24.3.0, SVG Export Plug-In . SVG Version: 6.00 Build 0)  -->
<svg version="1.1" id="Warstwa_1" xmlns="http://www.w3.org/2000/svg" xmlns:xlink="http://www.w3.org/1999/xlink" x="0px" y="0px"
	 viewBox="0 0 184.83 103.93" style="enable-background:new 0 0 184.83 103.93;" xml:space="preserve">
<style type="text/css">
	.st0{fill:#FFFFFF;}
</style>
<path id="logotyp" class="st0" d="M36.9,0c19.67,0.01,35.75,15.37,36.9,34.75H46.14c-1.01-4.17-4.75-7.26-9.22-7.26
	c0,0-0.01,0-0.01,0s-0.01,0-0.01,0c-4.48,0-8.22,3.1-9.22,7.26H0C1.16,15.37,17.23,0.01,36.9,0z M73.8,39.22H46.14
	c-1.01,4.17-4.75,7.26-9.22,7.26c0,0-0.01,0-0.01,0s-0.01,0-0.01,0c-4.47,0-8.22-3.1-9.22-7.26H0C1.16,58.6,17.23,73.96,36.9,73.97
	C56.57,73.96,72.65,58.6,73.8,39.22z M164.14,49.93c2.16,0,3.75-1.29,3.75-3.4v-6.6h-1.93v6.44c0,0.95-0.5,1.67-1.82,1.67
	c-1.32,0-1.82-0.71-1.82-1.67v-6.44h-1.92v6.6C160.4,48.64,162,49.93,164.14,49.93z M184.83,39.92h-1.99l-2.8,4.64l-2.82-4.64h-1.99
	v9.8h1.93v-6.34l2.76,4.54h0.22l2.76-4.55v6.36h1.92V39.92z M122.38,39.92v5.98l-4.2-5.98h-1.47v9.8h1.93v-6l4.2,6h1.47v-9.8H122.38
	z M120.1,57.92h-3.89v9.8h3.89c2.7,0,4.72-2.14,4.72-4.9S122.8,57.92,120.1,57.92z M120.1,65.88h-1.96v-6.11h1.96
	c1.7,0,2.87,1.25,2.87,3.05S121.79,65.88,120.1,65.88z M119.67,83.88l4.08-6.43v-1.53h-6.44v1.85h3.98l-4.08,6.42v1.54h6.63v-1.85
	H119.67z M138.52,39.92h-7.21v1.85h2.63v7.96h1.93v-7.96h2.65V39.92z M137.45,67.73h2.1l-3.45-9.8h-2.4l-3.43,9.8h2.09l0.59-1.76
	h3.91L137.45,67.73z M133.57,64.16l1.34-4.01l1.34,4.01H133.57z M139.95,80.46h-4.92v1.71H138c-0.34,1.12-1.32,1.86-2.86,1.86
	c-2.04,0-3.35-1.37-3.35-3.19c0-1.86,1.34-3.24,3.21-3.24c1.19,0,2.19,0.57,2.63,1.36l1.65-0.95c-0.83-1.34-2.41-2.28-4.27-2.28
	c-2.93,0-5.14,2.27-5.14,5.11c0,2.8,2.18,5.08,5.25,5.08c2.82,0,4.82-1.88,4.82-4.71V80.46z M151.43,49.73h2.09l-2.17-3.7
	c1.12-0.52,1.89-1.62,1.89-2.86c0-1.79-1.46-3.25-3.26-3.25h-3.92v9.8h1.93v-3.4h1.47L151.43,49.73z M147.98,41.73h1.99
	c0.73,0,1.33,0.63,1.33,1.44s-0.6,1.46-1.33,1.46h-1.99V41.73z M151.65,57.92v5.98l-4.2-5.98h-1.47v9.8h1.93v-6l4.2,6h1.47v-9.8
	H151.65z M148.56,57.04l1.12-1.92h2.17l-1.56,1.92H148.56z M149.77,85.93c2.16,0,3.75-1.29,3.75-3.4v-6.6h-1.93v6.44
	c0,0.95-0.5,1.67-1.82,1.67c-1.32,0-1.82-0.71-1.82-1.67v-6.44h-1.92v6.6C146.03,84.64,147.63,85.93,149.77,85.93z M89.3,49.93
	c1.81,0,3.39-0.91,4.22-2.31l-1.67-0.97c-0.46,0.85-1.43,1.39-2.55,1.39c-1.92,0-3.18-1.33-3.18-3.21c0-1.89,1.26-3.22,3.18-3.22
	c1.12,0,2.07,0.53,2.55,1.4l1.67-0.97c-0.84-1.4-2.42-2.31-4.22-2.31c-2.97,0-5.1,2.23-5.1,5.1C84.2,47.68,86.33,49.93,89.3,49.93z
	 M90.58,62.64c0.58-0.46,0.92-1.12,0.92-1.96c0-1.64-1.33-2.76-2.98-2.76h-3.87v9.8h4.16c1.7,0,3.05-1.16,3.05-2.84
	C91.87,63.86,91.36,63.09,90.58,62.64z M88.52,59.73c0.62,0,1.05,0.46,1.05,1.08c0,0.62-0.45,1.08-1.05,1.08h-1.93v-2.16H88.52z
	 M88.81,65.92h-2.23v-2.31h2.23c0.66,0,1.13,0.49,1.13,1.15C89.95,65.43,89.47,65.92,88.81,65.92z M94.25,75.92h-1.99l-2.8,4.64
	l-2.82-4.64h-1.99v9.81h1.93v-6.35l2.76,4.54h0.22l2.76-4.55v6.36h1.92V75.92z M88.31,103.93c2.16,0,3.75-1.29,3.75-3.4v-6.6h-1.93
	v6.44c0,0.95-0.5,1.67-1.82,1.67c-1.32,0-1.82-0.71-1.82-1.67v-6.44h-1.92v6.6C84.57,102.64,86.17,103.93,88.31,103.93z
	 M105.27,47.88v-2.2h3.71v-1.82h-3.71v-2.09h4.06v-1.85h-6v9.8h6.07v-1.85H105.27z M108.9,67.73h2.1l-3.45-9.8h-2.4l-3.43,9.8h2.09
	l0.59-1.76h3.91L108.9,67.73z M105.02,64.16l1.34-4.01l1.34,4.01H105.02z M106.36,85.93c2.83,0,5.1-2.24,5.1-5.1
	c0-2.87-2.27-5.1-5.1-5.1c-2.83,0-5.08,2.23-5.08,5.1C101.27,83.68,103.53,85.93,106.36,85.93z M106.36,84.03
	c-1.78,0-3.17-1.33-3.17-3.21c0-1.89,1.39-3.22,3.17-3.22s3.17,1.33,3.17,3.22C109.52,82.7,108.14,84.03,106.36,84.03z
	 M105.24,74.93l1.12-1.92h2.17l-1.55,1.92H105.24z M103.26,103.93c1.93,0,3.45-1.13,3.45-3.25v-6.75h-1.92v6.75
	c0,0.8-0.46,1.36-1.53,1.36c-0.81,0-1.26-0.31-1.57-0.92l-1.67,0.95C100.63,103.28,101.76,103.93,103.26,103.93z"/>
</svg>
