<svg xmlns="http://www.w3.org/2000/svg" viewBox="0 0 135.74 76.32"><defs><style>.cls-1{fill:#fff;}</style></defs><g id="Warstwa_2" data-name="Warstwa 2"><g id="Warstwa_1-2" data-name="Warstwa 1"><path id="logotyp" class="cls-1" d="M27.1,0A27.16,27.16,0,0,1,54.2,25.52H33.88a7,7,0,0,0-6.77-5.33h0a7,7,0,0,0-6.77,5.33H0A27.16,27.16,0,0,1,27.1,0ZM54.2,28.8H33.88a7,7,0,0,1-6.77,5.34h0a7,7,0,0,1-6.77-5.34H0a27.15,27.15,0,0,0,54.2,0Zm66.35,7.87a2.5,2.5,0,0,0,2.75-2.5V29.32h-1.42v4.73c0,.7-.37,1.23-1.33,1.23s-1.34-.53-1.34-1.23V29.32H117.8v4.85A2.5,2.5,0,0,0,120.55,36.67Zm15.19-7.35h-1.47l-2.05,3.41-2.07-3.41h-1.46v7.2h1.42V31.86l2,3.33h.17l2-3.34v4.67h1.41Zm-45.86,0v4.39l-3.09-4.39H85.71v7.2h1.42v-4.4l3.09,4.4H91.3v-7.2ZM88.2,42.54H85.34v7.2H88.2a3.6,3.6,0,0,0,0-7.2Zm0,5.84H86.76V43.9H88.2a2.24,2.24,0,0,1,0,4.48ZM87.88,61.6l3-4.72V55.76H86.14v1.36h2.92l-3,4.71V63h4.87V61.6Zm13.85-32.28h-5.3v1.36h1.94v5.84h1.42V30.68h1.94Zm-.79,20.42h1.55L100,42.54H98.2l-2.52,7.2h1.53l.43-1.3h2.87Zm-2.85-2.62,1-2.95,1,2.95Zm4.69,12H99.17v1.26h2.18a2,2,0,0,1-2.1,1.36,2.36,2.36,0,1,1-.1-4.72,2.2,2.2,0,0,1,1.93,1l1.22-.7a3.66,3.66,0,0,0-3.14-1.68,3.75,3.75,0,1,0,.08,7.49,3.33,3.33,0,0,0,3.54-3.45Zm8.43-22.57h1.53l-1.59-2.71a2.35,2.35,0,0,0,1.38-2.1,2.39,2.39,0,0,0-2.39-2.39h-2.88v7.2h1.42V34h1.08Zm-2.53-5.87h1.46a1,1,0,0,1,1,1.06,1,1,0,0,1-1,1.07h-1.46Zm2.69,11.89v4.39l-3.08-4.39h-1.08v7.2h1.42v-4.4l3.08,4.4h1.08v-7.2Zm-2.27-.65.82-1.41h1.6l-1.15,1.41ZM110,63.1a2.49,2.49,0,0,0,2.76-2.5V55.76h-1.42v4.73c0,.7-.37,1.22-1.34,1.22s-1.33-.52-1.33-1.22V55.76h-1.41V60.6A2.49,2.49,0,0,0,110,63.1ZM65.58,36.67a3.57,3.57,0,0,0,3.1-1.7l-1.22-.71a2.08,2.08,0,0,1-1.88,1,2.37,2.37,0,0,1,0-4.73,2.1,2.1,0,0,1,1.88,1l1.22-.71a3.58,3.58,0,0,0-3.1-1.69,3.75,3.75,0,0,0,0,7.49ZM66.52,46a1.8,1.8,0,0,0,.68-1.44,2.06,2.06,0,0,0-2.19-2H62.17v7.2h3a2.12,2.12,0,0,0,2.25-2.09A1.81,1.81,0,0,0,66.52,46ZM65,43.87a.79.79,0,0,1,0,1.58H63.59V43.87Zm.21,4.54H63.59V46.72h1.63a.85.85,0,0,1,0,1.69Zm4,7.35H67.75l-2,3.4-2.07-3.4H62.17V63h1.42V58.3l2,3.33h.17l2-3.34V63h1.41ZM64.85,76.32a2.49,2.49,0,0,0,2.76-2.5V69H66.19v4.73c0,.7-.37,1.22-1.34,1.22s-1.33-.52-1.33-1.22V69H62.11v4.84A2.49,2.49,0,0,0,64.85,76.32ZM77.31,35.16V33.55H80V32.21H77.31V30.68h3V29.32h-4.4v7.2h4.45V35.16ZM80,49.74h1.54L79,42.54H77.23l-2.52,7.2h1.53l.43-1.3h2.87Zm-2.85-2.62,1-2.95,1,2.95Zm1,16a3.75,3.75,0,1,0-3.74-3.74A3.71,3.71,0,0,0,78.11,63.1Zm0-1.39a2.36,2.36,0,1,1,2.32-2.35A2.28,2.28,0,0,1,78.11,61.71ZM77.29,55l.82-1.41H79.7L78.56,55ZM75.83,76.32a2.31,2.31,0,0,0,2.53-2.38V69H77v5c0,.58-.33,1-1.12,1a1.14,1.14,0,0,1-1.15-.67L73.46,75A2.46,2.46,0,0,0,75.83,76.32Z"/></g></g></svg>