<?xml version="1.0" encoding="utf-8"?>
<!-- Generator: Adobe Illustrator 24.3.0, SVG Export Plug-In . SVG Version: 6.00 Build 0)  -->
<svg version="1.1" id="Warstwa_1" xmlns="http://www.w3.org/2000/svg" xmlns:xlink="http://www.w3.org/1999/xlink" x="0px" y="0px"
	 viewBox="0 0 298.43 79.43" style="enable-background:new 0 0 298.43 79.43;" xml:space="preserve">
<style type="text/css">
	.st0{clip-path:url(#SVGID_2_);fill:#FFFFFF;}
	.st1{fill:#FFFFFF;}
	.st2{clip-path:url(#SVGID_4_);fill:#FFFFFF;}
	.st3{clip-path:url(#SVGID_6_);fill:#FFFFFF;}
</style>
<g>
	<defs>
		<rect id="SVGID_1_" x="4" y="3" width="290.43" height="72.43"/>
	</defs>
	<clipPath id="SVGID_2_">
		<use xlink:href="#SVGID_1_"  style="overflow:visible;"/>
	</clipPath>
	<polygon class="st0" points="33.74,59.74 36.94,63.84 34.69,65.6 31.48,61.5 	"/>
	<path class="st0" d="M14.73,40.83c-0.63-0.21-1.48-0.13-2.1,0.31c-0.08,0.06-0.24,0.05-0.29,0c-0.02-0.02-1.29-1.04-1.29-1.04
		l6.92-5.42l0.7,1.51c0.03,0.07,0.01,0.22-0.06,0.29c-0.46,0.42-0.79,0.99-0.8,1.94c0,1,0.64,1.66,0.87,1.98
		c-0.42,0.32-1.84,1.44-2.25,1.77C15.87,41.36,15.43,41,14.73,40.83"/>
	<path class="st0" d="M35.07,67.83c0.39,0.46,1.08,0.53,1.48,0.21l2.26-1.76c0.4-0.31,0.55-0.97,0.16-1.46l-0.33-0.42
		c-0.39-0.5-1.06-0.51-1.46-0.18l-2.26,1.76c-0.41,0.32-0.51,1.01-0.19,1.43L35.07,67.83z"/>
</g>
<path class="st1" d="M28.42,52.96l3.7,4.7l-2.24,1.75l-3.26-4.14L28.42,52.96z M20.17,42.36l5.89,7.55l-1.81,2.32l-6.34-8.1
	L20.17,42.36z"/>
<g>
	<defs>
		<rect id="SVGID_3_" x="4" y="3" width="290.43" height="72.43"/>
	</defs>
	<clipPath id="SVGID_4_">
		<use xlink:href="#SVGID_3_"  style="overflow:visible;"/>
	</clipPath>
	<path class="st2" d="M32.65,57.93l-2.67,2.08c-0.62,0.48,0.32,1.73,0.96,1.23l2.67-2.08C34.24,58.69,33.26,57.45,32.65,57.93"/>
	<path class="st2" d="M19.13,40.61l-2.67,2.08c-0.62,0.48,0.32,1.73,0.96,1.23l2.67-2.08C20.71,41.36,19.74,40.13,19.13,40.61"/>
	<path class="st2" d="M10.64,39.75l-3.45-2.67c-0.05-0.04-0.04-0.25,0.16-0.21c0.03,0,2.16,0.2,2.16,0.2l-0.01-1.54
		c-0.01-0.1,0.14-0.23,0.24-0.2c0.02,0,1.48,0.41,1.48,0.41l-0.72-3.27c-0.03-0.13,0.14-0.26,0.26-0.21c0,0,2.99,1.5,2.99,1.5
		l-0.02-1.53c-0.01-0.1,0.13-0.24,0.26-0.21c0.02,0,1.46,0.4,1.46,0.4l0.33-2.16c0.01-0.18,0.17-0.17,0.2-0.13
		c0.01,0.01,1.8,4,1.8,4L10.64,39.75z"/>
	<polygon class="st2" points="19.04,59.61 15.84,63.72 18.09,65.48 21.3,61.38 	"/>
	<path class="st2" d="M37.96,40.83c0.63-0.21,1.48-0.13,2.1,0.31c0.08,0.06,0.24,0.05,0.29,0c0.02-0.02,1.24-1,1.24-1l-6.91-5.45
		l-0.66,1.5c-0.03,0.07-0.01,0.22,0.06,0.29c0.46,0.42,0.79,0.99,0.8,1.94c0,1-0.64,1.66-0.87,1.98c0.42,0.32,1.84,1.44,2.25,1.77
		C36.81,41.36,37.25,41,37.96,40.83"/>
	<path class="st2" d="M17.7,67.7c-0.39,0.46-1.08,0.53-1.48,0.21l-2.26-1.76c-0.4-0.31-0.55-0.97-0.16-1.46l0.33-0.42
		c0.39-0.5,1.06-0.51,1.46-0.18l2.25,1.76c0.41,0.32,0.51,1.01,0.2,1.43L17.7,67.7z"/>
</g>
<polygon class="st1" points="32.51,42.36 20.57,57.66 22.81,59.41 34.77,44.12 "/>
<g>
	<defs>
		<rect id="SVGID_5_" x="4" y="3" width="290.43" height="72.43"/>
	</defs>
	<clipPath id="SVGID_6_">
		<use xlink:href="#SVGID_5_"  style="overflow:visible;"/>
	</clipPath>
	<path class="st3" d="M20.09,57.85l2.67,2.08c0.62,0.48-0.32,1.73-0.96,1.23l-2.67-2.08C18.5,58.61,19.48,57.38,20.09,57.85"/>
	<path class="st3" d="M33.55,40.61l2.67,2.08c0.62,0.48-0.32,1.73-0.96,1.23l-2.67-2.08C31.97,41.36,32.94,40.13,33.55,40.61"/>
	<path class="st3" d="M41.98,39.81l3.51-2.73c0.05-0.04,0.04-0.25-0.16-0.21c-0.03,0-2.16,0.2-2.16,0.2l0.02-1.54
		c0.01-0.1-0.14-0.23-0.24-0.2c-0.01,0-1.48,0.41-1.48,0.41l0.72-3.28c0.03-0.13-0.14-0.26-0.26-0.21l-2.99,1.5l0.02-1.53
		c0.01-0.1-0.13-0.24-0.26-0.21c-0.02,0-1.46,0.4-1.46,0.4l-0.33-2.16c-0.01-0.18-0.17-0.17-0.2-0.13
		c-0.01,0.01-1.82,4.11-1.82,4.11L41.98,39.81z"/>
	<path class="st3" d="M26.23,75.43C13.95,75.43,4,65.48,4,53.2L4,26.8l0.59,0l43.27,0h0.59V53.2
		C48.46,65.48,38.51,75.43,26.23,75.43 M26.23,74.25c11.63,0,21.05-9.42,21.05-21.05V27.97l-42.09,0l0,25.23
		C5.18,64.83,14.6,74.25,26.23,74.25"/>
	<path class="st3" d="M13.49,24.39c0,0-6.3-17-6.31-17.02C7.15,6.96,7.37,7.03,7.6,7.11l0.25,0.12c0.76,0.38,1.53,0.64,2.33,0.85
		c0.85,0.19,1.53,0.3,2.04,1.1c0.25,0.49,0.23,0.86,0.09,1.42c-0.04,0.17,0.12,0.05,0.2-0.13c0.62-0.97,1.08-1.37,2.4-1.45
		c1.11-0.07,2.03,0.31,2.52,1.48c0.34,0.97-0.02,1.87-0.9,2.62c-0.15,0.22-0.18,0.31-0.14,0.58c0.02,0.19,0.49,0.42,0.67,0.43
		c0.16,0.01-1.19,1.74-2.51,0.53c-0.23-0.57-0.25-0.84-0.16-1.55c0.05-0.49-0.85-0.72-1.06,0.27c-0.29,1.67,0.53,3.12,1.59,3.85
		c0.94,0.48,2.21,0.42,2.95-0.18c0.4-0.35,0.59-0.49,0.66-1.29c-0.4-0.22-0.67-0.42-0.8-0.89c-0.24-0.91,0.15-1.7,1.06-1.94
		s1.77,0.45,1.77,1.4c0,0.44-0.26,0.91-0.54,1.21c0.4,1.16,1.17,1.13,2,1.16c1.12,0.06,2.82-0.67,2.86-3.41
		c-0.03-0.49-0.42-2.23-1.13-2.27c-0.46,0-0.58,0.37-0.4,0.71c0.14,0.23,0.27,0.31,0.26,0.87c-0.26,1.28-2.19,1.17-2.21,1.12
		c1.09-1.62-1.92-1.93-1.81-3.86c0.08-1.38,0.93-1.88,1.65-2.11c0.78-0.19,1.46-0.12,2.12,0.23c0.2,0.1,0.31,0.2,0.56,0.46
		c0.03,0.03,0.14,0.07,0.08-0.06c-0.02-0.05-0.06-0.13-0.14-0.31c-0.27-0.62-0.16-1.42,0.25-1.99c0.48-0.65,1.18-1.33,1.51-2.07
		c0.09-0.2,0.29-0.76,0.42-0.92c0.05-0.04,0.1-0.07,0.15-0.08c0.06,0.01,0.12,0.05,0.17,0.1c0.12,0.16,0.33,0.71,0.43,0.94
		c0.34,0.74,1.01,1.4,1.49,2.04c0.4,0.57,0.52,1.38,0.24,1.99c-0.05,0.13-0.14,0.24-0.16,0.29c-0.04,0.08,0.04,0.08,0.07,0.04
		c0.35-0.3,0.33-0.27,0.6-0.42c0.66-0.35,1.34-0.42,2.12-0.23c0.72,0.23,1.57,0.73,1.65,2.11c0.11,1.93-2.9,2.24-1.81,3.86
		c-0.02,0.05-1.94,0.17-2.21-1.12c-0.01-0.55,0.12-0.63,0.26-0.87c0.18-0.34,0.06-0.7-0.4-0.71c-0.71,0.04-1.1,1.77-1.13,2.27
		c0.04,2.74,1.74,3.47,2.86,3.41c0.84-0.03,1.61,0,2-1.16c-0.27-0.3-0.53-0.77-0.53-1.21c0-0.94,0.85-1.64,1.77-1.4
		c0.91,0.24,1.31,1.03,1.06,1.94c-0.12,0.47-0.4,0.67-0.8,0.89c0.07,0.8,0.25,0.95,0.66,1.29c0.75,0.6,2.01,0.67,2.95,0.18
		c1.06-0.74,1.88-2.18,1.59-3.85c-0.21-0.98-1.11-0.75-1.06-0.27c0.1,0.71,0.07,0.98-0.16,1.55c-1.32,1.21-2.67-0.52-2.51-0.53
		c0.18-0.02,0.65-0.24,0.67-0.43c0.04-0.27,0.01-0.35-0.14-0.58c-0.87-0.75-1.24-1.65-0.9-2.62c0.48-1.17,1.4-1.55,2.52-1.48
		c1.32,0.08,1.78,0.48,2.4,1.45c0.05,0.07,0.2,0.47,0.3,0.27c-0.08-0.6-0.31-1.18,0.07-1.77c0.51-0.81,1.11-0.71,1.96-0.9
		c0.8-0.22,1.5-0.44,2.26-0.82l0.32-0.14c0.26-0.18,0.51-0.18,0.41,0.24c-0.01,0.02-6.31,17.02-6.31,17.02H13.49z"/>
	<path class="st3" d="M61.21,63.67c0.1,0.34,0.17,0.48,0.3,0.48c0.16,0,0.22-0.16,0.47-0.69c0.56-1.2,2.3-5.84,2.55-6.5h0.03
		l2.72,6.56c0.2,0.49,0.27,0.64,0.41,0.64c0.17,0,0.24-0.16,0.38-0.61c0.64-1.96,2.01-6.12,2.62-7.77c0.27-0.74,0.42-1.27,0.73-1.39
		c0.15-0.05,0.33-0.07,0.46-0.07c0.12,0,0.18-0.04,0.18-0.13c0-0.08-0.09-0.1-0.24-0.1c-0.43,0-0.99,0.04-1.09,0.04
		c-0.12,0-0.67-0.04-1.36-0.04c-0.2,0-0.3,0.03-0.3,0.12c0,0.08,0.09,0.12,0.22,0.12c0.51,0,0.63,0.18,0.63,0.39
		c0,0.18-0.04,0.46-0.13,0.76c-0.46,1.53-1.51,4.99-1.74,5.86h-0.04l-2.72-6.58c-0.17-0.42-0.24-0.61-0.38-0.61
		c-0.1,0-0.18,0.11-0.33,0.47l-2.54,6.82h-0.04c-0.24-0.73-1.45-4.7-1.68-5.56c-0.16-0.59-0.29-1.03-0.29-1.2
		c0-0.14,0.03-0.24,0.14-0.29c0.09-0.05,0.22-0.05,0.33-0.05c0.13,0,0.24-0.01,0.24-0.12c0-0.08-0.09-0.12-0.28-0.12
		c-0.76,0-1.34,0.04-1.45,0.04c-0.12,0-0.84-0.04-1.52-0.04c-0.18,0-0.29,0.03-0.29,0.12c0,0.1,0.08,0.12,0.21,0.12
		c0.12,0,0.38,0.03,0.52,0.12c0.18,0.13,0.33,0.44,0.48,0.93L61.21,63.67z"/>
	<path class="st3" d="M83.05,57.87c0-1.99,0-2.36,0.03-2.77c0.03-0.46,0.13-0.68,0.49-0.75c0.16-0.03,0.24-0.04,0.37-0.04
		c0.1,0,0.18-0.03,0.18-0.12c0-0.09-0.09-0.12-0.28-0.12c-0.44,0-1.27,0.04-1.58,0.04s-1.14-0.04-1.83-0.04
		c-0.2,0-0.29,0.03-0.29,0.12c0,0.09,0.08,0.12,0.22,0.12c0.18,0,0.41,0.01,0.51,0.04c0.43,0.09,0.54,0.3,0.56,0.75
		c0.03,0.42,0.03,0.79,0.03,2.77v2.3c0,1.21,0,2.24-0.06,2.79c-0.05,0.38-0.12,0.67-0.38,0.72c-0.12,0.03-0.27,0.05-0.47,0.05
		c-0.16,0-0.21,0.04-0.21,0.11c0,0.09,0.09,0.13,0.26,0.13c0.52,0,1.35-0.04,1.65-0.04c0.33,0,1.15,0.04,1.89,0.04
		c0.14,0,0.25-0.04,0.25-0.13c0-0.07-0.06-0.11-0.17-0.11c-0.17,0-0.46-0.03-0.64-0.05c-0.33-0.05-0.45-0.34-0.47-0.71
		c-0.04-0.56-0.04-1.59-0.04-2.8v-1.19h0.06l0.14,0.2c0.28,0.38,2.85,3.4,3.43,3.91c0.56,0.5,0.92,0.79,1.62,0.85
		c0.27,0.03,0.51,0.03,0.9,0.03h1.14c0.25,0,0.31-0.04,0.31-0.13c0-0.08-0.08-0.11-0.17-0.11c-0.16,0-0.42-0.04-0.81-0.2
		c-0.71-0.27-1.3-0.86-1.87-1.41c-0.51-0.48-3.07-3.24-3.55-3.86c0.45-0.47,2.42-2.43,2.83-2.83c0.56-0.55,1.01-0.82,1.41-0.98
		c0.25-0.09,0.57-0.14,0.76-0.14c0.13,0,0.2-0.03,0.2-0.12c0-0.09-0.09-0.12-0.22-0.12c-0.41,0-1.13,0.04-1.53,0.04
		c-0.35,0-1.07-0.04-1.35-0.04c-0.14,0-0.21,0.03-0.21,0.12c0,0.08,0.05,0.1,0.17,0.13c0.13,0.03,0.18,0.12,0.18,0.26
		c0,0.22-0.29,0.55-0.66,0.98c-0.38,0.45-2.29,2.4-2.74,2.88h-0.06V57.87z"/>
	<path class="st3" d="M92.49,60.18c0,1.2,0,2.24-0.06,2.79c-0.05,0.38-0.12,0.67-0.38,0.72c-0.12,0.03-0.27,0.05-0.47,0.05
		c-0.16,0-0.21,0.04-0.21,0.11c0,0.09,0.09,0.13,0.26,0.13c0.52,0,1.35-0.04,1.6-0.04c0.2,0,1.16,0.04,1.92,0.04
		c0.17,0,0.26-0.04,0.26-0.13c0-0.07-0.05-0.11-0.16-0.11c-0.16,0-0.44-0.03-0.64-0.05c-0.39-0.05-0.47-0.34-0.51-0.72
		c-0.07-0.55-0.07-1.58-0.07-2.8v-0.18c0-0.08,0.04-0.1,0.11-0.1l1.14,0.03c0.09,0,0.17,0.01,0.24,0.09c0.17,0.2,0.77,1.09,1.3,1.81
		c0.73,1.01,1.23,1.62,1.79,1.92c0.34,0.18,0.67,0.25,1.4,0.25h1.24c0.16,0,0.25-0.03,0.25-0.13c0-0.07-0.05-0.11-0.16-0.11
		c-0.11,0-0.22-0.01-0.37-0.04c-0.2-0.04-0.73-0.13-1.47-0.89c-0.77-0.81-1.67-1.97-2.84-3.44c1.32-1.07,1.73-1.96,1.73-2.93
		c0-0.88-0.52-1.54-0.89-1.79c-0.71-0.49-1.58-0.56-2.41-0.56c-0.41,0-1.4,0.04-1.84,0.04c-0.27,0-1.1-0.04-1.79-0.04
		c-0.2,0-0.29,0.03-0.29,0.12c0,0.09,0.08,0.12,0.22,0.12c0.18,0,0.41,0.01,0.51,0.04c0.43,0.09,0.54,0.3,0.56,0.75
		c0.03,0.42,0.03,0.79,0.03,2.77V60.18z M94.03,54.93c0-0.11,0.03-0.16,0.12-0.18c0.13-0.04,0.37-0.05,0.69-0.05
		c0.77,0,2,0.54,2,2.39c0,1.07-0.38,1.67-0.77,1.96c-0.24,0.17-0.41,0.22-0.93,0.22c-0.33,0-0.72-0.04-0.99-0.13
		c-0.09-0.04-0.12-0.09-0.12-0.24V54.93z"/>
	<path class="st3" d="M106.8,60.56c0.07,0,0.11,0.03,0.13,0.09l1.05,2.77c0.07,0.16-0.03,0.28-0.12,0.3
		c-0.13,0.01-0.18,0.04-0.18,0.12c0,0.09,0.16,0.09,0.39,0.1c1.05,0.03,2,0.03,2.47,0.03c0.48,0,0.6-0.03,0.6-0.13
		c0-0.09-0.06-0.11-0.17-0.11c-0.16,0-0.35-0.01-0.55-0.05c-0.27-0.06-0.65-0.25-1.15-1.43c-0.84-1.99-2.93-7.33-3.24-8.05
		c-0.13-0.3-0.21-0.42-0.33-0.42c-0.13,0-0.21,0.14-0.37,0.52l-3.29,8.22c-0.26,0.65-0.51,1.1-1.11,1.18
		c-0.11,0.01-0.29,0.03-0.41,0.03c-0.11,0-0.16,0.03-0.16,0.11c0,0.1,0.08,0.13,0.25,0.13c0.68,0,1.4-0.04,1.54-0.04
		c0.41,0,0.97,0.04,1.39,0.04c0.14,0,0.22-0.03,0.22-0.13c0-0.08-0.04-0.11-0.2-0.11h-0.2c-0.41,0-0.52-0.17-0.52-0.41
		c0-0.16,0.07-0.47,0.2-0.8l0.71-1.87c0.03-0.08,0.05-0.11,0.12-0.11H106.8z M104.14,59.9c-0.05,0-0.06-0.04-0.05-0.09l1.2-3.22
		c0.01-0.05,0.04-0.12,0.08-0.12c0.04,0,0.05,0.06,0.06,0.12l1.18,3.23c0.01,0.04,0,0.08-0.06,0.08H104.14z"/>
	<path class="st3" d="M115.09,57.87c0-1.99,0-2.36,0.03-2.77c0.03-0.46,0.13-0.68,0.48-0.75c0.16-0.03,0.24-0.04,0.37-0.04
		c0.11,0,0.18-0.03,0.18-0.12c0-0.09-0.09-0.12-0.27-0.12c-0.44,0-1.27,0.04-1.58,0.04c-0.31,0-1.14-0.04-1.83-0.04
		c-0.2,0-0.29,0.03-0.29,0.12c0,0.09,0.08,0.12,0.22,0.12c0.18,0,0.4,0.01,0.51,0.04c0.43,0.09,0.54,0.3,0.56,0.75
		c0.03,0.42,0.03,0.79,0.03,2.77v2.3c0,1.21,0,2.24-0.07,2.79c-0.05,0.38-0.12,0.67-0.38,0.72c-0.12,0.03-0.27,0.05-0.47,0.05
		c-0.16,0-0.21,0.04-0.21,0.11c0,0.09,0.09,0.13,0.26,0.13c0.52,0,1.35-0.04,1.65-0.04c0.33,0,1.15,0.04,1.88,0.04
		c0.14,0,0.25-0.04,0.25-0.13c0-0.07-0.06-0.11-0.17-0.11c-0.17,0-0.46-0.03-0.64-0.05c-0.33-0.05-0.44-0.34-0.47-0.71
		c-0.04-0.56-0.04-1.59-0.04-2.8v-1.19h0.06l0.14,0.2c0.27,0.38,2.85,3.4,3.43,3.91c0.56,0.5,0.92,0.79,1.62,0.85
		c0.27,0.03,0.51,0.03,0.9,0.03h1.14c0.25,0,0.31-0.04,0.31-0.13c0-0.08-0.08-0.11-0.17-0.11c-0.16,0-0.42-0.04-0.81-0.2
		c-0.71-0.27-1.3-0.86-1.87-1.41c-0.51-0.48-3.08-3.24-3.55-3.86c0.44-0.47,2.42-2.43,2.83-2.83c0.56-0.55,1.01-0.82,1.41-0.98
		c0.25-0.09,0.58-0.14,0.76-0.14c0.13,0,0.2-0.03,0.2-0.12c0-0.09-0.09-0.12-0.22-0.12c-0.41,0-1.13,0.04-1.53,0.04
		c-0.35,0-1.07-0.04-1.35-0.04c-0.14,0-0.21,0.03-0.21,0.12c0,0.08,0.05,0.1,0.17,0.13c0.13,0.03,0.18,0.12,0.18,0.26
		c0,0.22-0.29,0.55-0.65,0.98c-0.38,0.45-2.29,2.4-2.74,2.88h-0.06V57.87z"/>
	<path class="st3" d="M128.38,64.15c3.32,0,5.42-2.37,5.42-5.37c0-2.99-2.03-4.89-5.29-4.89c-3.93,0-5.4,2.89-5.4,5.13
		C123.1,61.34,124.62,64.15,128.38,64.15 M128.93,63.5c-2.51,0-4.02-2.16-4.02-4.88c0-3.26,1.71-4.09,3.22-4.09
		c2.15,0,3.83,1.82,3.83,4.75C131.96,63.06,129.84,63.5,128.93,63.5"/>
	<path class="st3" d="M139.25,63.67c0.11,0.34,0.17,0.48,0.3,0.48c0.16,0,0.22-0.16,0.47-0.69c0.56-1.2,2.3-5.84,2.55-6.5h0.03
		l2.72,6.56c0.19,0.49,0.27,0.64,0.4,0.64c0.17,0,0.24-0.16,0.38-0.61c0.64-1.96,2.02-6.12,2.62-7.77c0.28-0.74,0.42-1.27,0.73-1.39
		c0.14-0.05,0.33-0.07,0.46-0.07c0.12,0,0.18-0.04,0.18-0.13c0-0.08-0.09-0.1-0.24-0.1c-0.43,0-0.99,0.04-1.09,0.04
		c-0.12,0-0.67-0.04-1.36-0.04c-0.2,0-0.3,0.03-0.3,0.12c0,0.08,0.09,0.12,0.22,0.12c0.51,0,0.63,0.18,0.63,0.39
		c0,0.18-0.04,0.46-0.13,0.76c-0.46,1.53-1.51,4.99-1.74,5.86h-0.04l-2.72-6.58c-0.17-0.42-0.24-0.61-0.38-0.61
		c-0.11,0-0.18,0.11-0.33,0.47l-2.54,6.82h-0.04c-0.24-0.73-1.45-4.7-1.67-5.56c-0.16-0.59-0.29-1.03-0.29-1.2
		c0-0.14,0.03-0.24,0.14-0.29c0.09-0.05,0.22-0.05,0.33-0.05c0.13,0,0.24-0.01,0.24-0.12c0-0.08-0.09-0.12-0.28-0.12
		c-0.76,0-1.33,0.04-1.45,0.04c-0.12,0-0.84-0.04-1.52-0.04c-0.18,0-0.29,0.03-0.29,0.12c0,0.1,0.08,0.12,0.21,0.12
		c0.12,0,0.38,0.03,0.52,0.12c0.18,0.13,0.33,0.44,0.48,0.93L139.25,63.67z"/>
	<path class="st3" d="M152.83,60.18c0,1.27,0,2.3-0.06,2.85c-0.04,0.38-0.12,0.6-0.38,0.66c-0.12,0.03-0.28,0.05-0.47,0.05
		c-0.16,0-0.21,0.04-0.21,0.1c0,0.09,0.09,0.13,0.26,0.13c0.52,0,1.35-0.04,1.65-0.04c0.35,0,1.18,0.04,2.04,0.04
		c0.14,0,0.25-0.04,0.25-0.13c0-0.06-0.06-0.1-0.21-0.1c-0.2,0-0.48-0.03-0.67-0.05c-0.39-0.05-0.48-0.29-0.52-0.64
		c-0.05-0.56-0.05-1.59-0.05-2.87v-2.3c0-1.99,0-2.36,0.03-2.77c0.03-0.46,0.13-0.68,0.48-0.75c0.16-0.03,0.26-0.04,0.39-0.04
		c0.13,0,0.21-0.03,0.21-0.13c0-0.08-0.11-0.1-0.28-0.1c-0.5,0-1.27,0.04-1.6,0.04c-0.38,0-1.2-0.04-1.7-0.04
		c-0.21,0-0.31,0.03-0.31,0.1c0,0.11,0.08,0.13,0.21,0.13c0.16,0,0.33,0.01,0.47,0.05c0.29,0.07,0.42,0.29,0.44,0.73
		c0.03,0.42,0.03,0.79,0.03,2.77V60.18z"/>
	<path class="st3" d="M159.73,60.18c0,1.2,0,2.24-0.06,2.79c-0.05,0.38-0.12,0.67-0.38,0.72c-0.12,0.03-0.28,0.05-0.47,0.05
		c-0.16,0-0.21,0.04-0.21,0.1c0,0.09,0.09,0.13,0.26,0.13c0.52,0,1.35-0.04,1.65-0.04c0.77,0,1.65,0.08,3.62,0.08
		c0.5,0,0.61,0,0.71-0.34c0.07-0.26,0.17-1.15,0.17-1.45c0-0.13,0-0.24-0.1-0.24c-0.09,0-0.12,0.05-0.14,0.2
		c-0.09,0.54-0.25,0.81-0.59,0.97c-0.34,0.16-0.89,0.16-1.23,0.16c-1.34,0-1.54-0.2-1.57-1.1c-0.01-0.38,0-1.58,0-2.03v-1.03
		c0-0.08,0.01-0.13,0.08-0.13c0.31,0,1.61,0.01,1.86,0.04c0.48,0.05,0.67,0.25,0.73,0.51c0.04,0.17,0.04,0.34,0.05,0.47
		c0,0.07,0.03,0.12,0.12,0.12c0.12,0,0.12-0.14,0.12-0.25c0-0.09,0.03-0.61,0.05-0.88c0.04-0.67,0.11-0.88,0.11-0.95
		c0-0.08-0.04-0.11-0.09-0.11c-0.06,0-0.12,0.06-0.21,0.17c-0.12,0.13-0.31,0.17-0.63,0.2c-0.3,0.03-1.81,0.03-2.09,0.03
		c-0.08,0-0.09-0.05-0.09-0.14V54.9c0-0.09,0.03-0.13,0.09-0.13c0.26,0,1.64,0.03,1.86,0.05c0.65,0.08,0.79,0.24,0.88,0.47
		c0.07,0.16,0.08,0.38,0.08,0.47c0,0.12,0.03,0.18,0.12,0.18c0.09,0,0.12-0.08,0.13-0.14c0.03-0.16,0.05-0.73,0.06-0.86
		c0.04-0.6,0.11-0.76,0.11-0.85c0-0.07-0.01-0.12-0.08-0.12s-0.14,0.04-0.21,0.05c-0.1,0.03-0.31,0.05-0.56,0.08
		c-0.25,0.01-2.85,0.01-3.27,0.01c-0.37,0-1.19-0.04-1.88-0.04c-0.2,0-0.29,0.03-0.29,0.12c0,0.09,0.08,0.12,0.22,0.12
		c0.18,0,0.41,0.01,0.51,0.04c0.43,0.09,0.54,0.3,0.56,0.75c0.03,0.42,0.03,0.79,0.03,2.77V60.18z"/>
	<path class="st3" d="M59.04,42.62c0,1.9,0.5,2.87,1.16,3.47c0.95,0.86,2.21,0.9,2.9,0.9c0.85,0,1.79-0.14,2.72-0.94
		c1.1-0.94,1.24-2.49,1.24-3.94v-1.4c0-1.99,0-2.36,0.03-2.77c0.03-0.46,0.13-0.68,0.48-0.74c0.16-0.03,0.24-0.04,0.38-0.04
		c0.16,0,0.23-0.03,0.23-0.12c0-0.09-0.09-0.12-0.27-0.12c-0.51,0-1.33,0.04-1.49,0.04c-0.01,0-0.84-0.04-1.51-0.04
		c-0.18,0-0.27,0.03-0.27,0.12c0,0.09,0.08,0.12,0.22,0.12c0.14,0,0.37,0.01,0.47,0.04c0.43,0.09,0.54,0.3,0.56,0.74
		c0.03,0.42,0.03,0.79,0.03,2.77v1.64c0,1.35-0.04,2.53-0.76,3.24c-0.52,0.52-1.23,0.71-1.8,0.71c-0.45,0-1.05-0.05-1.64-0.54
		c-0.64-0.52-1.02-1.32-1.02-3.22v-1.83c0-1.99,0-2.36,0.03-2.77c0.03-0.46,0.13-0.68,0.49-0.74c0.16-0.03,0.24-0.04,0.38-0.04
		c0.13,0,0.21-0.03,0.21-0.12c0-0.09-0.09-0.12-0.29-0.12c-0.47,0-1.29,0.04-1.61,0.04c-0.39,0-1.22-0.04-1.91-0.04
		c-0.2,0-0.29,0.03-0.29,0.12c0,0.09,0.08,0.12,0.22,0.12c0.18,0,0.41,0.01,0.51,0.04c0.43,0.09,0.54,0.3,0.56,0.74
		c0.03,0.42,0.03,0.79,0.03,2.77V42.62z"/>
	<path class="st3" d="M72.32,39.53h0.04c0.23,0.25,1.69,1.88,3.11,3.3c1.36,1.35,3.04,3.06,3.86,3.85c0.14,0.14,0.3,0.29,0.44,0.29
		c0.12,0,0.17-0.12,0.17-0.41l0.14-8.26c0.01-0.73,0.12-1.01,0.49-1.11c0.16-0.04,0.26-0.04,0.39-0.04c0.16,0,0.24-0.04,0.24-0.12
		c0-0.11-0.13-0.12-0.3-0.12c-0.64,0-1.14,0.04-1.28,0.04c-0.27,0-0.9-0.04-1.58-0.04c-0.2,0-0.34,0.01-0.34,0.12
		c0,0.08,0.05,0.12,0.21,0.12c0.18,0,0.5,0,0.69,0.08c0.31,0.13,0.43,0.38,0.44,1.18l0.13,5.88h-0.06
		c-0.22-0.21-1.99-2.09-2.88-2.98c-1.91-1.9-3.9-4.03-4.06-4.2c-0.22-0.24-0.34-0.41-0.49-0.41c-0.13,0-0.17,0.18-0.17,0.44
		l-0.12,7.75c-0.01,1.14-0.06,1.52-0.4,1.62c-0.18,0.05-0.42,0.06-0.59,0.06c-0.13,0-0.21,0.03-0.21,0.11
		c0,0.12,0.12,0.13,0.29,0.13c0.68,0,1.29-0.04,1.41-0.04c0.25,0,0.77,0.04,1.62,0.04c0.18,0,0.3-0.03,0.3-0.13
		c0-0.08-0.08-0.11-0.22-0.11c-0.21,0-0.46-0.01-0.68-0.09c-0.26-0.09-0.43-0.43-0.46-1.45L72.32,39.53z"/>
	<path class="st3" d="M85.11,43.01c0,1.27,0,2.3-0.06,2.85c-0.04,0.38-0.12,0.6-0.38,0.65c-0.12,0.03-0.28,0.05-0.47,0.05
		c-0.16,0-0.21,0.04-0.21,0.1c0,0.09,0.09,0.13,0.26,0.13c0.52,0,1.35-0.04,1.65-0.04c0.35,0,1.18,0.04,2.04,0.04
		c0.14,0,0.25-0.04,0.25-0.13c0-0.06-0.06-0.1-0.21-0.1c-0.2,0-0.49-0.03-0.67-0.05c-0.39-0.05-0.48-0.29-0.52-0.64
		c-0.05-0.56-0.05-1.6-0.05-2.87v-2.3c0-1.99,0-2.35,0.03-2.77c0.03-0.46,0.13-0.68,0.49-0.75c0.16-0.03,0.26-0.04,0.39-0.04
		s0.21-0.03,0.21-0.13c0-0.08-0.11-0.1-0.28-0.1c-0.5,0-1.27,0.04-1.59,0.04c-0.38,0-1.2-0.04-1.7-0.04c-0.21,0-0.31,0.03-0.31,0.1
		c0,0.1,0.08,0.13,0.21,0.13c0.16,0,0.33,0.01,0.47,0.05c0.29,0.06,0.42,0.29,0.44,0.73c0.03,0.42,0.03,0.78,0.03,2.77V43.01z"/>
	<path class="st3" d="M93.61,46.5c0.1,0.34,0.17,0.48,0.3,0.48c0.16,0,0.22-0.16,0.47-0.69c0.56-1.2,2.3-5.84,2.55-6.5h0.03
		l2.72,6.56c0.2,0.49,0.27,0.64,0.41,0.64c0.17,0,0.24-0.16,0.38-0.61c0.64-1.96,2.01-6.12,2.62-7.77c0.27-0.75,0.42-1.27,0.73-1.39
		c0.15-0.05,0.33-0.07,0.46-0.07c0.12,0,0.18-0.04,0.18-0.13c0-0.08-0.09-0.11-0.24-0.11c-0.43,0-0.99,0.04-1.09,0.04
		c-0.12,0-0.67-0.04-1.36-0.04c-0.2,0-0.3,0.03-0.3,0.12c0,0.08,0.09,0.12,0.22,0.12c0.51,0,0.63,0.18,0.63,0.39
		c0,0.18-0.04,0.46-0.13,0.76c-0.46,1.53-1.51,4.99-1.74,5.86h-0.04l-2.72-6.58c-0.17-0.42-0.24-0.61-0.38-0.61
		c-0.1,0-0.18,0.11-0.33,0.47l-2.54,6.82h-0.04c-0.24-0.73-1.45-4.7-1.68-5.56c-0.16-0.59-0.29-1.03-0.29-1.2
		c0-0.14,0.03-0.24,0.14-0.29c0.09-0.05,0.22-0.05,0.33-0.05c0.13,0,0.24-0.01,0.24-0.12c0-0.08-0.09-0.12-0.28-0.12
		c-0.76,0-1.34,0.04-1.45,0.04c-0.12,0-0.84-0.04-1.52-0.04c-0.18,0-0.29,0.03-0.29,0.12c0,0.1,0.08,0.12,0.21,0.12
		c0.12,0,0.38,0.03,0.52,0.12c0.18,0.13,0.33,0.44,0.48,0.93L93.61,46.5z"/>
	<path class="st3" d="M107.19,43.01c0,1.2,0,2.24-0.07,2.79c-0.05,0.38-0.12,0.67-0.38,0.72c-0.12,0.03-0.28,0.05-0.47,0.05
		c-0.16,0-0.21,0.04-0.21,0.1c0,0.09,0.09,0.13,0.26,0.13c0.52,0,1.35-0.04,1.65-0.04c0.77,0,1.65,0.08,3.62,0.08
		c0.5,0,0.61,0,0.71-0.34c0.06-0.26,0.17-1.15,0.17-1.45c0-0.13,0-0.24-0.1-0.24c-0.09,0-0.12,0.05-0.14,0.2
		c-0.09,0.54-0.25,0.81-0.59,0.97c-0.34,0.16-0.89,0.16-1.23,0.16c-1.33,0-1.54-0.2-1.57-1.1c-0.01-0.38,0-1.58,0-2.03v-1.03
		c0-0.08,0.01-0.13,0.08-0.13c0.31,0,1.61,0.01,1.86,0.04c0.48,0.05,0.67,0.25,0.73,0.51c0.04,0.17,0.04,0.34,0.05,0.47
		c0,0.06,0.03,0.12,0.12,0.12c0.12,0,0.12-0.14,0.12-0.25c0-0.09,0.03-0.62,0.05-0.88c0.04-0.67,0.11-0.88,0.11-0.96
		c0-0.08-0.04-0.1-0.09-0.1c-0.07,0-0.12,0.06-0.21,0.17c-0.12,0.13-0.31,0.17-0.63,0.2c-0.3,0.03-1.81,0.03-2.09,0.03
		c-0.08,0-0.09-0.05-0.09-0.14v-3.31c0-0.09,0.03-0.13,0.09-0.13c0.26,0,1.64,0.03,1.86,0.05c0.65,0.08,0.79,0.24,0.88,0.47
		c0.06,0.16,0.08,0.38,0.08,0.47c0,0.12,0.03,0.18,0.12,0.18c0.09,0,0.12-0.08,0.13-0.14c0.03-0.16,0.05-0.73,0.06-0.86
		c0.04-0.6,0.11-0.76,0.11-0.85c0-0.07-0.01-0.12-0.08-0.12c-0.06,0-0.14,0.04-0.21,0.05c-0.1,0.03-0.31,0.05-0.56,0.08
		c-0.25,0.01-2.85,0.01-3.27,0.01c-0.37,0-1.19-0.04-1.88-0.04c-0.2,0-0.29,0.03-0.29,0.12s0.08,0.12,0.22,0.12
		c0.18,0,0.4,0.01,0.51,0.04c0.43,0.09,0.54,0.3,0.56,0.75c0.03,0.42,0.03,0.78,0.03,2.77V43.01z"/>
	<path class="st3" d="M116.44,43.01c0,1.2,0,2.24-0.07,2.79c-0.05,0.38-0.12,0.67-0.38,0.72c-0.12,0.03-0.27,0.05-0.47,0.05
		c-0.16,0-0.21,0.04-0.21,0.11c0,0.09,0.09,0.13,0.26,0.13c0.52,0,1.35-0.04,1.6-0.04c0.2,0,1.16,0.04,1.92,0.04
		c0.17,0,0.26-0.04,0.26-0.13c0-0.07-0.05-0.11-0.16-0.11c-0.16,0-0.44-0.03-0.64-0.05c-0.39-0.05-0.47-0.34-0.51-0.72
		c-0.07-0.55-0.07-1.58-0.07-2.8v-0.18c0-0.08,0.04-0.1,0.11-0.1l1.14,0.03c0.09,0,0.17,0.01,0.24,0.09c0.17,0.2,0.77,1.09,1.3,1.81
		c0.73,1.01,1.23,1.62,1.79,1.92c0.34,0.18,0.67,0.25,1.4,0.25h1.24c0.16,0,0.25-0.03,0.25-0.13c0-0.07-0.05-0.11-0.16-0.11
		c-0.11,0-0.22-0.01-0.37-0.04c-0.2-0.04-0.73-0.13-1.47-0.89c-0.77-0.81-1.67-1.98-2.84-3.44c1.32-1.07,1.73-1.96,1.73-2.93
		c0-0.88-0.52-1.54-0.89-1.79c-0.71-0.49-1.58-0.56-2.41-0.56c-0.41,0-1.4,0.04-1.84,0.04c-0.27,0-1.1-0.04-1.79-0.04
		c-0.2,0-0.29,0.03-0.29,0.12c0,0.09,0.08,0.12,0.22,0.12c0.18,0,0.41,0.01,0.51,0.04c0.43,0.09,0.54,0.3,0.56,0.75
		c0.03,0.42,0.03,0.79,0.03,2.77V43.01z M117.99,37.76c0-0.1,0.03-0.16,0.12-0.18c0.13-0.04,0.37-0.05,0.69-0.05
		c0.77,0,2,0.54,2,2.39c0,1.07-0.38,1.67-0.77,1.96c-0.24,0.17-0.41,0.22-0.93,0.22c-0.33,0-0.72-0.04-0.99-0.13
		c-0.09-0.04-0.12-0.09-0.12-0.24V37.76z"/>
	<path class="st3" d="M128.5,46.99c0.69,0,1.43-0.12,2.08-0.54c0.94-0.61,1.23-1.52,1.23-2.28c0-1.24-0.57-2.12-2.14-3.34
		l-0.37-0.27c-1.09-0.82-1.39-1.28-1.39-1.88c0-0.79,0.59-1.35,1.56-1.35c0.85,0,1.23,0.39,1.43,0.64c0.27,0.34,0.34,0.75,0.34,0.86
		c0,0.16,0.04,0.24,0.13,0.24c0.11,0,0.14-0.1,0.14-0.39c0-1.02,0.05-1.4,0.05-1.57c0-0.09-0.06-0.13-0.18-0.16
		c-0.34-0.09-0.89-0.22-1.74-0.22c-1.82,0-3.02,1.03-3.02,2.47c0,1.06,0.5,1.98,1.94,3.1l0.6,0.47c1.09,0.84,1.28,1.45,1.28,2.09
		c0,0.69-0.58,1.49-1.75,1.49c-0.81,0-1.58-0.35-1.87-1.32c-0.07-0.22-0.12-0.5-0.12-0.67c0-0.1-0.01-0.22-0.13-0.22
		c-0.1,0-0.14,0.14-0.16,0.34c-0.01,0.21-0.06,1-0.06,1.71c0,0.29,0.04,0.35,0.25,0.44C127.15,46.9,127.74,46.99,128.5,46.99"/>
	<path class="st3" d="M137.37,44.49c0,0.21,0,0.76-0.04,1.31c-0.03,0.38-0.14,0.67-0.4,0.72c-0.12,0.03-0.28,0.05-0.46,0.05
		c-0.14,0-0.21,0.04-0.21,0.1c0,0.1,0.11,0.13,0.29,0.13c0.48,0,1.31-0.04,1.64-0.04c0.35,0,1.18,0.04,2,0.04
		c0.17,0,0.28-0.04,0.28-0.13c0-0.06-0.07-0.1-0.21-0.1c-0.18,0-0.47-0.03-0.65-0.05c-0.39-0.05-0.51-0.34-0.54-0.72
		c-0.04-0.55-0.04-1.1-0.04-1.31v-1.07c0-0.43,0-0.84,0.2-1.31c0.24-0.56,2.07-3.64,2.5-4.16c0.29-0.35,0.43-0.51,0.71-0.64
		c0.2-0.1,0.44-0.16,0.58-0.16c0.14,0,0.25-0.04,0.25-0.13c0-0.08-0.09-0.11-0.24-0.11c-0.25,0-1.11,0.04-1.4,0.04
		c-0.38,0-0.8-0.04-1.23-0.04c-0.16,0-0.22,0.03-0.22,0.12c0,0.08,0.12,0.1,0.24,0.13c0.22,0.05,0.27,0.2,0.27,0.33
		c0,0.17-0.05,0.39-0.18,0.68c-0.18,0.41-1.83,3.29-1.96,3.6c-0.21-0.37-2.04-3.52-2.22-3.91c-0.09-0.18-0.16-0.34-0.16-0.44
		c0-0.11,0.06-0.21,0.18-0.24c0.2-0.05,0.29-0.06,0.29-0.14c0-0.08-0.06-0.12-0.2-0.12c-0.59,0-1.12,0.04-1.4,0.04
		c-0.43,0-1.41-0.04-1.65-0.04c-0.16,0-0.25,0.04-0.25,0.12c0,0.09,0.09,0.12,0.2,0.12c0.16,0,0.38,0.08,0.55,0.17
		c0.25,0.14,0.57,0.47,0.9,0.96c0.46,0.68,2.21,3.56,2.3,3.77c0.17,0.38,0.3,0.67,0.3,1.37V44.49z"/>
	<path class="st3" d="M147.4,43.01c0,1.2,0,2.24-0.07,2.79c-0.04,0.38-0.12,0.67-0.38,0.72c-0.12,0.03-0.28,0.05-0.47,0.05
		c-0.16,0-0.21,0.04-0.21,0.1c0,0.09,0.09,0.13,0.26,0.13c0.52,0,1.35-0.04,1.65-0.04c0.37,0,1.19,0.04,2.05,0.04
		c0.14,0,0.25-0.04,0.25-0.13c0-0.06-0.06-0.1-0.21-0.1c-0.19,0-0.48-0.03-0.67-0.05c-0.39-0.05-0.47-0.34-0.51-0.71
		c-0.06-0.56-0.06-1.6-0.06-2.8v-5.37l1.65,0.04c1.16,0.03,1.52,0.39,1.54,0.73l0.01,0.14c0.01,0.2,0.04,0.26,0.14,0.26
		c0.08,0,0.1-0.08,0.12-0.21c0-0.34,0.04-1.24,0.04-1.52c0-0.19-0.01-0.27-0.11-0.27c-0.11,0-0.42,0.13-1.26,0.13H146
		c-0.43,0-0.93-0.03-1.31-0.07c-0.33-0.03-0.46-0.16-0.56-0.16c-0.08,0-0.12,0.08-0.16,0.25c-0.03,0.1-0.28,1.29-0.28,1.5
		c0,0.14,0.03,0.21,0.12,0.21c0.08,0,0.12-0.05,0.14-0.16c0.03-0.11,0.09-0.26,0.22-0.46c0.2-0.29,0.51-0.35,1.27-0.38l1.95-0.05
		V43.01z"/>
	<path class="st3" d="M155.93,43.01c0,1.2,0,2.24-0.06,2.79c-0.05,0.38-0.12,0.67-0.38,0.72c-0.12,0.03-0.28,0.05-0.47,0.05
		c-0.16,0-0.21,0.04-0.21,0.1c0,0.09,0.09,0.13,0.26,0.13c0.52,0,1.35-0.04,1.65-0.04c0.77,0,1.65,0.08,3.62,0.08
		c0.5,0,0.61,0,0.71-0.34c0.07-0.26,0.17-1.15,0.17-1.45c0-0.13,0-0.24-0.1-0.24c-0.09,0-0.12,0.05-0.14,0.2
		c-0.09,0.54-0.25,0.81-0.59,0.97c-0.34,0.16-0.89,0.16-1.23,0.16c-1.34,0-1.54-0.2-1.57-1.1c-0.01-0.38,0-1.58,0-2.03v-1.03
		c0-0.08,0.01-0.13,0.08-0.13c0.31,0,1.61,0.01,1.86,0.04c0.48,0.05,0.67,0.25,0.73,0.51c0.04,0.17,0.04,0.34,0.05,0.47
		c0,0.06,0.03,0.12,0.12,0.12c0.12,0,0.12-0.14,0.12-0.25c0-0.09,0.03-0.62,0.05-0.88c0.04-0.67,0.11-0.88,0.11-0.96
		c0-0.08-0.04-0.1-0.09-0.1c-0.06,0-0.12,0.06-0.21,0.17c-0.12,0.13-0.31,0.17-0.63,0.2c-0.3,0.03-1.81,0.03-2.09,0.03
		c-0.08,0-0.09-0.05-0.09-0.14v-3.31c0-0.09,0.03-0.13,0.09-0.13c0.26,0,1.64,0.03,1.86,0.05c0.65,0.08,0.79,0.24,0.88,0.47
		c0.07,0.16,0.08,0.38,0.08,0.47c0,0.12,0.03,0.18,0.12,0.18c0.09,0,0.12-0.08,0.13-0.14c0.03-0.16,0.05-0.73,0.06-0.86
		c0.04-0.6,0.11-0.76,0.11-0.85c0-0.07-0.01-0.12-0.08-0.12c-0.07,0-0.14,0.04-0.21,0.05c-0.1,0.03-0.31,0.05-0.56,0.08
		c-0.25,0.01-2.85,0.01-3.27,0.01c-0.37,0-1.19-0.04-1.88-0.04c-0.2,0-0.29,0.03-0.29,0.12s0.08,0.12,0.22,0.12
		c0.18,0,0.41,0.01,0.51,0.04c0.43,0.09,0.54,0.3,0.56,0.75c0.03,0.42,0.03,0.78,0.03,2.77V43.01z"/>
	<path class="st3" d="M166.93,43.01c0,1.2,0,2.24-0.06,2.79c-0.04,0.38-0.12,0.67-0.38,0.72c-0.12,0.03-0.27,0.05-0.47,0.05
		c-0.16,0-0.21,0.04-0.21,0.1c0,0.09,0.09,0.13,0.26,0.13c0.52,0,1.35-0.04,1.65-0.04c0.37,0,1.19,0.04,2.05,0.04
		c0.14,0,0.25-0.04,0.25-0.13c0-0.06-0.07-0.1-0.21-0.1c-0.19,0-0.48-0.03-0.67-0.05c-0.39-0.05-0.47-0.34-0.51-0.71
		c-0.06-0.56-0.06-1.6-0.06-2.8v-5.37l1.65,0.04c1.17,0.03,1.52,0.39,1.54,0.73l0.01,0.14c0.01,0.2,0.04,0.26,0.14,0.26
		c0.08,0,0.1-0.08,0.12-0.21c0-0.34,0.04-1.24,0.04-1.52c0-0.19-0.01-0.27-0.11-0.27c-0.11,0-0.42,0.13-1.26,0.13h-5.18
		c-0.43,0-0.93-0.03-1.31-0.07c-0.33-0.03-0.46-0.16-0.56-0.16c-0.08,0-0.12,0.08-0.16,0.25c-0.03,0.1-0.28,1.29-0.28,1.5
		c0,0.14,0.03,0.21,0.12,0.21c0.08,0,0.12-0.05,0.14-0.16c0.03-0.11,0.09-0.26,0.22-0.46c0.2-0.29,0.51-0.35,1.27-0.38l1.95-0.05
		V43.01z"/>
	<path class="st3" d="M182.13,44.46c0,2.56,0.01,3.87-0.98,4.88c-0.26,0.26-0.46,0.41-0.63,0.5c-0.22,0.12-0.29,0.17-0.29,0.24
		c0,0.06,0.05,0.11,0.1,0.11c0.07,0,0.17-0.03,0.26-0.08c0.28-0.13,0.49-0.24,0.66-0.34c1.26-0.77,1.95-1.67,2.22-2.47
		c0.26-0.73,0.31-1.57,0.31-2.32c0-0.66-0.04-1.28-0.04-1.85v-2.42c0-1.99,0-2.35,0.03-2.77c0.03-0.46,0.13-0.68,0.49-0.74
		c0.16-0.03,0.24-0.04,0.38-0.04c0.16,0,0.24-0.03,0.24-0.12s-0.09-0.12-0.27-0.12c-0.51,0-1.34,0.04-1.65,0.04
		c-0.34,0-1.16-0.04-1.86-0.04c-0.2,0-0.29,0.03-0.29,0.12s0.08,0.12,0.22,0.12c0.18,0,0.41,0.01,0.51,0.04
		c0.43,0.09,0.54,0.3,0.56,0.74c0.03,0.42,0.03,0.79,0.03,2.77V44.46z"/>
	<path class="st3" d="M192,43.39c0.06,0,0.1,0.03,0.13,0.09l1.05,2.77c0.07,0.16-0.03,0.28-0.12,0.3c-0.13,0.01-0.18,0.04-0.18,0.12
		c0,0.09,0.16,0.09,0.39,0.1c1.05,0.03,2,0.03,2.47,0.03c0.49,0,0.6-0.03,0.6-0.13c0-0.09-0.06-0.11-0.17-0.11
		c-0.16,0-0.35-0.01-0.55-0.05c-0.27-0.06-0.65-0.25-1.15-1.43c-0.84-1.99-2.93-7.33-3.24-8.05c-0.13-0.3-0.21-0.42-0.33-0.42
		c-0.13,0-0.21,0.14-0.37,0.52l-3.28,8.22c-0.26,0.65-0.51,1.1-1.11,1.18c-0.1,0.01-0.29,0.03-0.41,0.03c-0.1,0-0.16,0.03-0.16,0.11
		c0,0.1,0.08,0.13,0.25,0.13c0.68,0,1.4-0.04,1.54-0.04c0.41,0,0.97,0.04,1.39,0.04c0.14,0,0.22-0.03,0.22-0.13
		c0-0.08-0.04-0.11-0.2-0.11h-0.2c-0.41,0-0.52-0.17-0.52-0.41c0-0.16,0.06-0.47,0.2-0.8l0.71-1.87c0.03-0.08,0.05-0.11,0.12-0.11
		H192z M189.34,42.74c-0.05,0-0.06-0.04-0.05-0.09l1.2-3.22c0.01-0.05,0.04-0.12,0.08-0.12s0.05,0.06,0.07,0.12l1.18,3.23
		c0.01,0.04,0,0.08-0.07,0.08H189.34z"/>
	<path class="st3" d="M206.64,44.49c0-0.65,0-1.18,0.01-1.57c0.01-0.46,0.14-0.68,0.5-0.74c0.16-0.03,0.25-0.04,0.35-0.04
		c0.09,0,0.17-0.03,0.17-0.1c0-0.11-0.09-0.13-0.26-0.13c-0.43,0-1.13,0.04-1.53,0.04c-0.39,0-1.22-0.04-1.9-0.04
		c-0.18,0-0.28,0.03-0.28,0.13c0,0.08,0.08,0.1,0.2,0.1c0.18,0,0.41,0.01,0.51,0.04c0.43,0.09,0.55,0.3,0.56,0.74
		c0.01,0.39,0.01,0.89,0.01,1.54v1.23c0,0.22-0.05,0.39-0.25,0.49c-0.31,0.14-0.77,0.14-1.11,0.14c-2.76,0-4.55-2.11-4.55-4.92
		c0-1.61,0.47-2.59,1.2-3.21c0.92-0.76,1.87-0.81,2.59-0.81c1.48,0,2.52,0.6,2.92,1.02c0.34,0.37,0.41,0.79,0.44,1.09
		c0.01,0.11,0.04,0.17,0.13,0.17c0.1,0,0.14-0.06,0.14-0.27c0-1.64,0.09-2,0.09-2.15c0-0.09-0.03-0.14-0.18-0.16
		c-0.3-0.01-0.76-0.09-1.03-0.14c-0.26-0.05-1.41-0.21-2.32-0.21c-1.1,0-2.26,0.09-3.52,0.85c-1.19,0.72-2.28,2.18-2.28,4.28
		c0,3.61,2.84,5.13,6.04,5.13c1.02,0,2.3-0.14,3.15-0.59c0.16-0.09,0.17-0.12,0.17-0.47V44.49z"/>
	<path class="st3" d="M211.28,43.01c0,1.27,0,2.3-0.06,2.85c-0.04,0.38-0.12,0.6-0.38,0.65c-0.12,0.03-0.28,0.05-0.47,0.05
		c-0.16,0-0.21,0.04-0.21,0.1c0,0.09,0.09,0.13,0.26,0.13c0.52,0,1.35-0.04,1.65-0.04c0.35,0,1.18,0.04,2.04,0.04
		c0.14,0,0.25-0.04,0.25-0.13c0-0.06-0.06-0.1-0.21-0.1c-0.2,0-0.48-0.03-0.67-0.05c-0.39-0.05-0.49-0.29-0.52-0.64
		c-0.05-0.56-0.05-1.6-0.05-2.87v-2.3c0-1.99,0-2.35,0.03-2.77c0.03-0.46,0.13-0.68,0.48-0.75c0.16-0.03,0.26-0.04,0.39-0.04
		c0.13,0,0.21-0.03,0.21-0.13c0-0.08-0.11-0.1-0.28-0.1c-0.5,0-1.27,0.04-1.6,0.04c-0.38,0-1.2-0.04-1.7-0.04
		c-0.21,0-0.31,0.03-0.31,0.1c0,0.1,0.08,0.13,0.21,0.13c0.16,0,0.33,0.01,0.47,0.05c0.29,0.06,0.42,0.29,0.45,0.73
		c0.03,0.42,0.03,0.78,0.03,2.77V43.01z"/>
	<path class="st3" d="M218.18,43.01c0,1.2,0,2.24-0.06,2.79c-0.05,0.38-0.12,0.67-0.38,0.72c-0.12,0.03-0.28,0.05-0.47,0.05
		c-0.16,0-0.21,0.04-0.21,0.1c0,0.09,0.09,0.13,0.26,0.13c0.52,0,1.35-0.04,1.65-0.04c0.77,0,1.65,0.08,3.62,0.08
		c0.5,0,0.61,0,0.71-0.34c0.07-0.26,0.17-1.15,0.17-1.45c0-0.13,0-0.24-0.1-0.24c-0.09,0-0.12,0.05-0.14,0.2
		c-0.09,0.54-0.25,0.81-0.59,0.97c-0.34,0.16-0.89,0.16-1.23,0.16c-1.34,0-1.54-0.2-1.57-1.1c-0.01-0.38,0-1.58,0-2.03v-1.03
		c0-0.08,0.01-0.13,0.08-0.13c0.31,0,1.61,0.01,1.86,0.04c0.48,0.05,0.67,0.25,0.73,0.51c0.04,0.17,0.04,0.34,0.05,0.47
		c0,0.06,0.03,0.12,0.12,0.12c0.12,0,0.12-0.14,0.12-0.25c0-0.09,0.03-0.62,0.05-0.88c0.04-0.67,0.1-0.88,0.1-0.96
		c0-0.08-0.04-0.1-0.09-0.1c-0.06,0-0.12,0.06-0.21,0.17c-0.12,0.13-0.31,0.17-0.63,0.2c-0.3,0.03-1.81,0.03-2.09,0.03
		c-0.08,0-0.09-0.05-0.09-0.14v-3.31c0-0.09,0.03-0.13,0.09-0.13c0.26,0,1.64,0.03,1.86,0.05c0.65,0.08,0.79,0.24,0.88,0.47
		c0.07,0.16,0.08,0.38,0.08,0.47c0,0.12,0.03,0.18,0.12,0.18s0.12-0.08,0.13-0.14c0.03-0.16,0.05-0.73,0.06-0.86
		c0.04-0.6,0.11-0.76,0.11-0.85c0-0.07-0.01-0.12-0.08-0.12c-0.06,0-0.14,0.04-0.21,0.05c-0.1,0.03-0.31,0.05-0.56,0.08
		c-0.25,0.01-2.85,0.01-3.27,0.01c-0.37,0-1.19-0.04-1.88-0.04c-0.2,0-0.29,0.03-0.29,0.12s0.08,0.12,0.22,0.12
		c0.18,0,0.41,0.01,0.51,0.04c0.43,0.09,0.54,0.3,0.56,0.75c0.03,0.42,0.03,0.78,0.03,2.77V43.01z"/>
	<path class="st3" d="M229.07,40.71c0-1.99,0-2.36,0.03-2.77c0.03-0.46,0.13-0.68,0.48-0.75c0.16-0.03,0.37-0.04,0.51-0.04
		c0.16,0,0.24-0.03,0.24-0.12c0-0.09-0.09-0.12-0.27-0.12c-0.51,0-1.46,0.04-1.78,0.04c-0.35,0-1.18-0.04-1.79-0.04
		c-0.2,0-0.29,0.03-0.29,0.12c0,0.09,0.08,0.12,0.22,0.12c0.17,0,0.33,0.01,0.43,0.04c0.43,0.09,0.54,0.3,0.56,0.75
		c0.03,0.42,0.03,0.79,0.03,2.77v2.3c0,1.2,0,2.24-0.06,2.79c-0.05,0.38-0.12,0.67-0.38,0.72c-0.12,0.03-0.27,0.05-0.47,0.05
		c-0.16,0-0.21,0.04-0.21,0.11c0,0.09,0.09,0.13,0.26,0.13c0.52,0,1.35-0.04,1.65-0.04c1.06,0,1.92,0.08,3.81,0.08
		c0.68,0,0.75-0.07,0.83-0.35c0.1-0.38,0.2-1.36,0.2-1.51c0-0.16-0.01-0.22-0.11-0.22c-0.1,0-0.13,0.08-0.14,0.2
		c-0.03,0.25-0.18,0.61-0.34,0.79c-0.33,0.35-0.84,0.37-1.53,0.37c-1.02,0-1.36-0.09-1.58-0.29c-0.27-0.24-0.27-1.14-0.27-2.81
		V40.71z"/>
	<path class="st3" d="M237.97,40.71c0-1.99,0-2.36,0.03-2.77c0.03-0.46,0.13-0.68,0.49-0.75c0.16-0.03,0.37-0.04,0.51-0.04
		c0.16,0,0.23-0.03,0.23-0.12c0-0.09-0.09-0.12-0.27-0.12c-0.51,0-1.46,0.04-1.78,0.04c-0.35,0-1.18-0.04-1.79-0.04
		c-0.2,0-0.29,0.03-0.29,0.12c0,0.09,0.08,0.12,0.22,0.12c0.17,0,0.33,0.01,0.43,0.04c0.43,0.09,0.54,0.3,0.56,0.75
		c0.03,0.42,0.03,0.79,0.03,2.77v2.3c0,1.2,0,2.24-0.06,2.79c-0.05,0.38-0.12,0.67-0.38,0.72c-0.12,0.03-0.27,0.05-0.47,0.05
		c-0.16,0-0.21,0.04-0.21,0.11c0,0.09,0.09,0.13,0.26,0.13c0.52,0,1.35-0.04,1.65-0.04c1.06,0,1.92,0.08,3.81,0.08
		c0.68,0,0.75-0.07,0.82-0.35c0.1-0.38,0.2-1.36,0.2-1.51c0-0.16-0.01-0.22-0.11-0.22c-0.1,0-0.13,0.08-0.14,0.2
		c-0.03,0.25-0.18,0.61-0.34,0.79c-0.33,0.35-0.84,0.37-1.53,0.37c-1.02,0-1.36-0.09-1.58-0.29c-0.28-0.24-0.28-1.14-0.28-2.81
		V40.71z"/>
	<path class="st3" d="M249.08,46.99c3.32,0,5.42-2.37,5.42-5.36c0-3-2.03-4.89-5.29-4.89c-3.93,0-5.4,2.89-5.4,5.13
		C243.81,44.18,245.33,46.99,249.08,46.99 M249.63,46.33c-2.51,0-4.02-2.16-4.02-4.88c0-3.26,1.71-4.1,3.22-4.1
		c2.15,0,3.83,1.82,3.83,4.75C252.67,45.89,250.55,46.33,249.63,46.33"/>
	<path class="st3" d="M264.05,34.05c-0.06-0.12-0.09-0.16-0.18-0.16c-0.04,0-0.13,0.03-0.26,0.12c-0.21,0.13-1.58,1.15-2.11,1.65
		c-0.07,0.06-0.12,0.12-0.12,0.17c0,0.05,0.05,0.08,0.08,0.08c0.03,0,0.12-0.05,0.22-0.1c0.49-0.26,1.52-0.68,2.24-0.77
		c0.26-0.03,0.38,0,0.44,0c0.06,0,0.14-0.04,0.06-0.2C264.28,34.48,264.16,34.23,264.05,34.05 M258.94,39.53h0.04
		c0.24,0.25,1.69,1.88,3.11,3.3c1.36,1.35,3.04,3.06,3.86,3.85c0.14,0.14,0.3,0.29,0.44,0.29c0.12,0,0.17-0.12,0.17-0.41l0.14-8.26
		c0.01-0.73,0.12-1.01,0.48-1.11c0.16-0.04,0.26-0.04,0.39-0.04c0.16,0,0.24-0.04,0.24-0.12c0-0.11-0.13-0.12-0.3-0.12
		c-0.64,0-1.14,0.04-1.28,0.04c-0.27,0-0.9-0.04-1.58-0.04c-0.2,0-0.34,0.01-0.34,0.12c0,0.08,0.05,0.12,0.21,0.12
		c0.18,0,0.5,0,0.69,0.08c0.31,0.13,0.43,0.38,0.44,1.18l0.13,5.88h-0.06c-0.22-0.21-1.99-2.09-2.88-2.98
		c-1.91-1.9-3.9-4.03-4.06-4.2c-0.22-0.24-0.34-0.41-0.48-0.41c-0.13,0-0.17,0.18-0.17,0.44l-0.12,7.75
		c-0.01,1.14-0.06,1.52-0.41,1.62c-0.18,0.05-0.42,0.06-0.59,0.06c-0.13,0-0.21,0.03-0.21,0.11c0,0.12,0.12,0.13,0.29,0.13
		c0.68,0,1.29-0.04,1.41-0.04c0.25,0,0.77,0.04,1.62,0.04c0.18,0,0.3-0.03,0.3-0.13c0-0.08-0.08-0.11-0.22-0.11
		c-0.21,0-0.46-0.01-0.68-0.09c-0.26-0.09-0.43-0.43-0.46-1.45L258.94,39.53z"/>
	<path class="st3" d="M272.92,46.99c0.69,0,1.43-0.12,2.08-0.54c0.94-0.61,1.23-1.52,1.23-2.28c0-1.24-0.58-2.12-2.15-3.34
		l-0.37-0.27c-1.09-0.82-1.39-1.28-1.39-1.88c0-0.79,0.59-1.35,1.56-1.35c0.85,0,1.23,0.39,1.43,0.64c0.27,0.34,0.34,0.75,0.34,0.86
		c0,0.16,0.04,0.24,0.13,0.24c0.11,0,0.14-0.1,0.14-0.39c0-1.02,0.05-1.4,0.05-1.57c0-0.09-0.06-0.13-0.18-0.16
		c-0.34-0.09-0.89-0.22-1.74-0.22c-1.82,0-3.02,1.03-3.02,2.47c0,1.06,0.5,1.98,1.94,3.1l0.6,0.47c1.09,0.84,1.28,1.45,1.28,2.09
		c0,0.69-0.58,1.49-1.75,1.49c-0.81,0-1.58-0.35-1.87-1.32c-0.06-0.22-0.12-0.5-0.12-0.67c0-0.1-0.01-0.22-0.13-0.22
		c-0.1,0-0.14,0.14-0.16,0.34c-0.01,0.21-0.07,1-0.07,1.71c0,0.29,0.04,0.35,0.25,0.44C271.57,46.9,272.16,46.99,272.92,46.99"/>
	<path class="st3" d="M281.92,40.71c0-1.99,0-2.36,0.03-2.77c0.03-0.46,0.13-0.68,0.48-0.75c0.16-0.03,0.24-0.04,0.37-0.04
		c0.11,0,0.18-0.03,0.18-0.12c0-0.09-0.09-0.12-0.27-0.12c-0.45,0-1.27,0.04-1.58,0.04c-0.31,0-1.14-0.04-1.83-0.04
		c-0.2,0-0.29,0.03-0.29,0.12c0,0.09,0.08,0.12,0.22,0.12c0.18,0,0.41,0.01,0.51,0.04c0.43,0.09,0.54,0.3,0.56,0.75
		c0.03,0.42,0.03,0.79,0.03,2.77v2.3c0,1.2,0,2.24-0.06,2.79c-0.05,0.38-0.12,0.67-0.38,0.72c-0.12,0.03-0.28,0.05-0.47,0.05
		c-0.16,0-0.21,0.04-0.21,0.11c0,0.09,0.09,0.13,0.26,0.13c0.52,0,1.35-0.04,1.65-0.04c0.33,0,1.15,0.04,1.88,0.04
		c0.14,0,0.25-0.04,0.25-0.13c0-0.07-0.07-0.11-0.17-0.11c-0.17,0-0.46-0.03-0.64-0.05c-0.33-0.05-0.44-0.34-0.47-0.71
		c-0.04-0.56-0.04-1.6-0.04-2.8v-1.19h0.06l0.14,0.2c0.27,0.38,2.85,3.4,3.43,3.91c0.56,0.5,0.92,0.79,1.62,0.85
		c0.28,0.03,0.51,0.03,0.9,0.03h1.14c0.25,0,0.31-0.04,0.31-0.13c0-0.08-0.08-0.11-0.17-0.11c-0.16,0-0.42-0.04-0.81-0.2
		c-0.71-0.27-1.29-0.86-1.87-1.41c-0.51-0.48-3.08-3.24-3.55-3.86c0.44-0.47,2.42-2.43,2.83-2.83c0.56-0.55,1.01-0.82,1.41-0.98
		c0.25-0.09,0.58-0.14,0.76-0.14c0.13,0,0.2-0.03,0.2-0.12c0-0.09-0.09-0.12-0.22-0.12c-0.41,0-1.13,0.04-1.53,0.04
		c-0.35,0-1.07-0.04-1.35-0.04c-0.14,0-0.21,0.03-0.21,0.12c0,0.08,0.05,0.1,0.17,0.13c0.13,0.03,0.18,0.12,0.18,0.26
		c0,0.22-0.29,0.55-0.65,0.98c-0.38,0.45-2.29,2.4-2.74,2.88h-0.06V40.71z"/>
	<path class="st3" d="M291.36,43.01c0,1.27,0,2.3-0.06,2.85c-0.04,0.38-0.12,0.6-0.38,0.65c-0.12,0.03-0.28,0.05-0.47,0.05
		c-0.16,0-0.21,0.04-0.21,0.1c0,0.09,0.09,0.13,0.26,0.13c0.52,0,1.35-0.04,1.65-0.04c0.35,0,1.18,0.04,2.04,0.04
		c0.14,0,0.25-0.04,0.25-0.13c0-0.06-0.06-0.1-0.21-0.1c-0.2,0-0.48-0.03-0.67-0.05c-0.39-0.05-0.49-0.29-0.52-0.64
		c-0.05-0.56-0.05-1.6-0.05-2.87v-2.3c0-1.99,0-2.35,0.03-2.77c0.03-0.46,0.13-0.68,0.48-0.75c0.16-0.03,0.26-0.04,0.39-0.04
		c0.13,0,0.21-0.03,0.21-0.13c0-0.08-0.11-0.1-0.28-0.1c-0.5,0-1.27,0.04-1.6,0.04c-0.38,0-1.2-0.04-1.7-0.04
		c-0.21,0-0.31,0.03-0.31,0.1c0,0.1,0.08,0.13,0.21,0.13c0.16,0,0.33,0.01,0.47,0.05c0.29,0.06,0.42,0.29,0.44,0.73
		c0.03,0.42,0.03,0.78,0.03,2.77V43.01z"/>
</g>
</svg>
