<svg xmlns="http://www.w3.org/2000/svg" xmlns:xlink="http://www.w3.org/1999/xlink" viewBox="0 0 36 36"><defs><style>.cls-1,.cls-4{fill:none;}.cls-2{clip-path:url(#clip-path);}.cls-3{fill:#20efaf;}.cls-4{stroke:#20efaf;stroke-miterlimit:10;}</style><clipPath id="clip-path"><rect class="cls-1" x="7.91" y="7.37" width="18.41" height="19.63"/></clipPath></defs><g id="Warstwa_2" data-name="Warstwa 2"><g id="Warstwa_1-2" data-name="Warstwa 1"><g class="cls-2"><path class="cls-3" d="M22.87,20.1a3.44,3.44,0,0,0-2.77,1.41l-5.44-2.79a3.38,3.38,0,0,0,.15-1,3.45,3.45,0,0,0-.25-1.29L20.25,13a3.4,3.4,0,0,0,2.62,1.23,3.45,3.45,0,1,0-3.46-3.45,3.65,3.65,0,0,0,.24,1.24L14,15.49a3.45,3.45,0,1,0,.21,4.27l5.42,2.78a3.34,3.34,0,0,0-.17,1,3.46,3.46,0,1,0,3.46-3.45"/></g><circle class="cls-4" cx="18" cy="18" r="17.5"/></g></g></svg>