<svg xmlns="http://www.w3.org/2000/svg" viewBox="0 0 24.02 24.02"><defs><style>.cls-1{fill:#fff;}</style></defs><g id="Warstwa_2" data-name="Warstwa 2"><g id="Warstwa_1-2" data-name="Warstwa 1"><path class="cls-1" d="M4.88,17.58a9.1,9.1,0,0,0,14-7.67c0-.14,0-.28,0-.41a6.47,6.47,0,0,0,1.6-1.66,6.26,6.26,0,0,1-1.84.5,3.19,3.19,0,0,0,1.41-1.77,6.25,6.25,0,0,1-2,.78,3.2,3.2,0,0,0-5.54,2.19,3.47,3.47,0,0,0,.08.73A9.08,9.08,0,0,1,6,6.92a3.28,3.28,0,0,0-.43,1.61A3.24,3.24,0,0,0,7,11.2a3.28,3.28,0,0,1-1.45-.4v0A3.22,3.22,0,0,0,8.07,14a3.34,3.34,0,0,1-.84.11,2.91,2.91,0,0,1-.6-.06,3.19,3.19,0,0,0,3,2.22,6.44,6.44,0,0,1-4,1.38A6.33,6.33,0,0,1,4.88,17.58Z"/><path class="cls-1" d="M0,0V24H24V0ZM22.54,22.54h-21v-21H22.54Z"/></g></g></svg>